<svg xmlns="http://www.w3.org/2000/svg" xmlns:xlink="http://www.w3.org/1999/xlink" viewBox="0 0 19.88 26.09"><defs><style>.cls-1{fill:url(#linear-gradient);}</style><linearGradient id="linear-gradient" x1="5.9" y1="30.53" x2="11.48" y2="-1.18" gradientUnits="userSpaceOnUse"><stop offset="0" stop-color="#ff113a"/><stop offset="1" stop-color="#00cbd3"/></linearGradient></defs><g id="Layer_2" data-name="Layer 2"><g id="Layer_1-2" data-name="Layer 1"><path class="cls-1" d="M18.9,10.72,1.87.2A1,1,0,0,0,.54.27,2.13,2.13,0,0,0,0,1.92v.69A2.36,2.36,0,0,0,1,4.72L14.75,13,1,21.38a2.37,2.37,0,0,0-1,2.1v.69a2.13,2.13,0,0,0,.54,1.65.9.9,0,0,0,.64.27,1.56,1.56,0,0,0,.72-.22l17-10.5a2.37,2.37,0,0,0,1-2.1v-.46A2.35,2.35,0,0,0,18.9,10.72Z"/></g></g></svg>