<svg xmlns="http://www.w3.org/2000/svg" xmlns:xlink="http://www.w3.org/1999/xlink" viewBox="0 0 158.77 140.56"><defs><style>.cls-1{fill:#00cbd3;}.cls-2{fill:url(#linear-gradient);}.cls-3{fill:url(#linear-gradient-2);}</style><linearGradient id="linear-gradient" x1="7.56" y1="62.61" x2="33.07" y2="24.99" gradientUnits="userSpaceOnUse"><stop offset="0" stop-color="#ff113a"/><stop offset="1" stop-color="#00cbd3"/></linearGradient><linearGradient id="linear-gradient-2" x1="7.56" y1="143.56" x2="33.07" y2="105.94" xlink:href="#linear-gradient"/></defs><g id="Layer_2" data-name="Layer 2"><g id="Layer_1-2" data-name="Layer 1"><path class="cls-1" d="M13.47,36.62a4.19,4.19,0,0,1,.58-2.25,7.54,7.54,0,0,1,1.48-1.72,16.57,16.57,0,0,1,1.92-1.44,22.48,22.48,0,0,0,1.92-1.37,7.46,7.46,0,0,0,1.48-1.56,3.42,3.42,0,0,0,.59-2,3.1,3.1,0,0,0-.25-1.25,3,3,0,0,0-.69-1,3.2,3.2,0,0,0-1.09-.68A4.13,4.13,0,0,0,18,23.09a3.6,3.6,0,0,0-1.25.21,4.57,4.57,0,0,0-1,.49,3.75,3.75,0,0,0-.73.61,3.9,3.9,0,0,0-.44.53A.34.34,0,0,1,14,25L13.94,25a.31.31,0,0,1-.11-.49,5.81,5.81,0,0,1,.51-.64,5,5,0,0,1,.86-.75,5.2,5.2,0,0,1,1.2-.62A4.6,4.6,0,0,1,18,22.2a5,5,0,0,1,1.93.34,4.1,4.1,0,0,1,1.38.91,3.53,3.53,0,0,1,.83,1.31,4.28,4.28,0,0,1,.28,1.54,4.11,4.11,0,0,1-.59,2.22,7.41,7.41,0,0,1-1.47,1.71,15.38,15.38,0,0,1-1.92,1.42A21.69,21.69,0,0,0,16.51,33,7.67,7.67,0,0,0,15,34.58a3.31,3.31,0,0,0-.59,2h7.82a.32.32,0,0,1,.36.36v.13a.32.32,0,0,1-.36.36h-8.4c-.27,0-.4-.12-.4-.36Z"/><path class="cls-1" d="M24.64,33.14a.32.32,0,0,1-.36-.37v0a.68.68,0,0,1,.15-.45l7.44-9.63a.55.55,0,0,1,.45-.22h.21a.32.32,0,0,1,.36.37v9.46h1.86a.32.32,0,0,1,.36.37v.12a.32.32,0,0,1-.36.37H32.89v3.91a.32.32,0,0,1-.36.36h-.19a.32.32,0,0,1-.37-.36V33.14ZM32,32.28V24.8c0-.15,0-.3,0-.42s0-.31.05-.45H32a2.62,2.62,0,0,0-.23.32l-.24.34a2.42,2.42,0,0,1-.27.36l-5.69,7.29v0Z"/><path class="cls-1" d="M44.33,24.72a4.53,4.53,0,0,1,.27-.54l.26-.45a2.51,2.51,0,0,1,.26-.4v0l-.3,0-.38,0H37a.33.33,0,0,1-.37-.37v-.14a.33.33,0,0,1,.37-.37h8.74c.24,0,.36.11.36.32v.09a.84.84,0,0,1-.11.45L39.17,37.15a.42.42,0,0,1-.42.26h-.2c-.31,0-.39-.14-.25-.43Z"/><path class="cls-2" d="M29.8,59.61A29.81,29.81,0,1,1,59.61,29.8,29.84,29.84,0,0,1,29.8,59.61Zm0-53.72A23.92,23.92,0,1,0,53.72,29.8,23.94,23.94,0,0,0,29.8,5.89Z"/><path class="cls-1" d="M81.77,17.35H72.85a.55.55,0,0,1-.62-.62v-.22a.55.55,0,0,1,.62-.62h19.4a.55.55,0,0,1,.62.62v.22a.55.55,0,0,1-.62.62H83.34V40.83a.55.55,0,0,1-.62.63h-.33a.55.55,0,0,1-.62-.63Z"/><path class="cls-1" d="M91.74,32.21a9.16,9.16,0,0,1,.75-3.72,9.58,9.58,0,0,1,2-3,9.57,9.57,0,0,1,10.37-2,9.38,9.38,0,0,1,5,5,9.16,9.16,0,0,1,.75,3.72,9.68,9.68,0,0,1-.75,3.82,9.44,9.44,0,0,1-5,5.12,9.57,9.57,0,0,1-7.38,0,9.68,9.68,0,0,1-5.77-8.94Zm1.61,0A8.36,8.36,0,0,0,94,35.48a8.09,8.09,0,0,0,1.68,2.6,7.56,7.56,0,0,0,5.55,2.35,7.49,7.49,0,0,0,3.07-.62,7.59,7.59,0,0,0,2.48-1.73,8.09,8.09,0,0,0,1.68-2.6,8.36,8.36,0,0,0,.62-3.27,8.12,8.12,0,0,0-2.3-5.7,7.48,7.48,0,0,0-2.48-1.69,8,8,0,0,0-6.14,0,7.48,7.48,0,0,0-2.48,1.69,8.12,8.12,0,0,0-2.3,5.7Z"/><path class="cls-1" d="M115.19,23.81a.55.55,0,0,1,.62-.62h.29a.55.55,0,0,1,.63.62V34.25a21.68,21.68,0,0,0,.12,2.32,5.59,5.59,0,0,0,.59,2,3.36,3.36,0,0,0,1.35,1.37,4.93,4.93,0,0,0,2.43.51,6.86,6.86,0,0,0,3.1-.69,7.41,7.41,0,0,0,2.36-1.85,8.66,8.66,0,0,0,1.5-2.66,9.32,9.32,0,0,0,.53-3.11V23.81a.55.55,0,0,1,.62-.62h.29a.55.55,0,0,1,.62.62v17a.55.55,0,0,1-.62.63h-.29a.55.55,0,0,1-.62-.63V38.24a5.62,5.62,0,0,1,0-.58,4.2,4.2,0,0,1,.05-.48c0-.14.05-.29.07-.44h-.07a6.71,6.71,0,0,1-.82,1.54A9.17,9.17,0,0,1,126.42,40a8.93,8.93,0,0,1-2.24,1.37,7.58,7.58,0,0,1-3,.56c-2.24,0-3.81-.6-4.69-1.82a8.92,8.92,0,0,1-1.34-5.3Z"/><path class="cls-1" d="M136.38,23.81a.55.55,0,0,1,.62-.62h.29a.55.55,0,0,1,.62.62v2.85a5.62,5.62,0,0,1,0,.6,4,4,0,0,1,0,.46c0,.15-.05.29-.07.44h.07a8.35,8.35,0,0,1,.91-2,7.35,7.35,0,0,1,1.35-1.61,6.21,6.21,0,0,1,1.74-1.08,5.66,5.66,0,0,1,2.14-.4c.51,0,.76.21.76.62V24c0,.42-.27.62-.8.62a4.5,4.5,0,0,0-2.67.82,6.89,6.89,0,0,0-1.88,2.12,10.32,10.32,0,0,0-1.11,2.87,13.32,13.32,0,0,0-.37,3.1v7.27a.55.55,0,0,1-.62.63H137a.55.55,0,0,1-.62-.63Z"/><path class="cls-1" d="M146.75,39.7a.54.54,0,0,1-.07-.84l.22-.25c.24-.3.53-.31.88,0a7.46,7.46,0,0,0,.76.57,10.55,10.55,0,0,0,1.13.6,9.17,9.17,0,0,0,1.48.49,7.33,7.33,0,0,0,1.81.2,5.69,5.69,0,0,0,1.61-.22,4,4,0,0,0,1.33-.66,3.59,3.59,0,0,0,.92-1.09,3.09,3.09,0,0,0,.34-1.49,2.5,2.5,0,0,0-.75-1.89,7.5,7.5,0,0,0-1.86-1.27,20.52,20.52,0,0,0-2.41-1,13.26,13.26,0,0,1-2.41-1.11,6.72,6.72,0,0,1-1.86-1.59,3.74,3.74,0,0,1-.75-2.42,4.71,4.71,0,0,1,.47-2.14A4.59,4.59,0,0,1,148.87,24a5.8,5.8,0,0,1,1.86-.93,8.17,8.17,0,0,1,2.23-.31,10.07,10.07,0,0,1,1.81.16,8.63,8.63,0,0,1,1.44.41,8.54,8.54,0,0,1,1,.5,4.91,4.91,0,0,1,.68.47.55.55,0,0,1,.15.84l-.22.29a.55.55,0,0,1-.88.07,7.29,7.29,0,0,0-1.53-.84,6.71,6.71,0,0,0-2.6-.44,6.37,6.37,0,0,0-1.51.19A4,4,0,0,0,150,25a3,3,0,0,0-.93,1.05,3.19,3.19,0,0,0-.35,1.52,2.65,2.65,0,0,0,.75,2,6.66,6.66,0,0,0,1.87,1.26,23.62,23.62,0,0,0,2.41,1,17.17,17.17,0,0,1,2.41,1.11A6.3,6.3,0,0,1,158,34.51a3.88,3.88,0,0,1,.75,2.46,4.5,4.5,0,0,1-1.66,3.56,6.08,6.08,0,0,1-1.87,1,7.21,7.21,0,0,1-2.31.36,9.73,9.73,0,0,1-2.25-.23,9.21,9.21,0,0,1-1.77-.57,7.38,7.38,0,0,1-1.32-.72A6.28,6.28,0,0,1,146.75,39.7Z"/><path class="cls-1" d="M19.82,116.54a.32.32,0,0,1,0-.51l.18-.17a.33.33,0,0,1,.51,0c.13.13.31.28.54.47a5.5,5.5,0,0,0,.84.52,5.93,5.93,0,0,0,1.08.43,4.44,4.44,0,0,0,1.3.18,3.69,3.69,0,0,0,1.38-.27,3.56,3.56,0,0,0,1.19-.74,3.83,3.83,0,0,0,.85-1.16,3.51,3.51,0,0,0,.32-1.5,3.39,3.39,0,0,0-.34-1.54,3.49,3.49,0,0,0-.9-1.11,4.11,4.11,0,0,0-1.27-.69,4.94,4.94,0,0,0-1.49-.23h-.72a.38.38,0,0,1-.41-.28l0-.08a.5.5,0,0,1,.08-.49l4-4.67a2,2,0,0,1,.22-.26l.23-.23.21-.19v0l-.3,0-.36,0H20.66a.33.33,0,0,1-.37-.37v-.13a.34.34,0,0,1,.37-.38H28.5c.24,0,.36.11.36.32v.07a.6.6,0,0,1-.17.45L24,109.36a7,7,0,0,1,1.53.2,4.47,4.47,0,0,1,1.62.69,4.38,4.38,0,0,1,1.27,1.36,4.09,4.09,0,0,1,.52,2.18,4.28,4.28,0,0,1-.37,1.79,4.56,4.56,0,0,1-1,1.45,4.73,4.73,0,0,1-1.52,1,4.83,4.83,0,0,1-1.82.35,5.74,5.74,0,0,1-1.54-.2,6.5,6.5,0,0,1-2.87-1.62Z"/><path class="cls-1" d="M38.72,105.41a4.53,4.53,0,0,1,.27-.54l.26-.44a2.23,2.23,0,0,1,.26-.41v0l-.3,0-.38,0h-7.4a.33.33,0,0,1-.37-.37v-.13a.34.34,0,0,1,.37-.38h8.74c.24,0,.36.11.36.32v.09a.84.84,0,0,1-.11.45l-6.85,13.85a.45.45,0,0,1-.43.25H33c-.32,0-.4-.14-.26-.42Z"/><path class="cls-3" d="M29.8,140.56a29.81,29.81,0,1,1,29.81-29.81A29.84,29.84,0,0,1,29.8,140.56Zm0-53.72a23.92,23.92,0,1,0,23.92,23.91A23.94,23.94,0,0,0,29.8,86.84Z"/><path class="cls-1" d="M74.06,109.44a14.13,14.13,0,0,1,.93-5.17,12.4,12.4,0,0,1,2.61-4.15,11.91,11.91,0,0,1,4-2.74,13.16,13.16,0,0,1,5.12-1,15.72,15.72,0,0,1,3.19.3,14,14,0,0,1,2.52.75,12,12,0,0,1,1.83.92,13.06,13.06,0,0,1,1.15.8.62.62,0,0,1,.07.88l-.18.22a.58.58,0,0,1-.88.07c-.27-.19-.63-.43-1.09-.71a13.53,13.53,0,0,0-1.66-.82,13.1,13.1,0,0,0-2.21-.68,12.76,12.76,0,0,0-2.71-.27,11,11,0,0,0-4.47.88,10.36,10.36,0,0,0-3.49,2.42,10.7,10.7,0,0,0-2.28,3.66,12.68,12.68,0,0,0-.83,4.62,13.29,13.29,0,0,0,.81,4.67,11.16,11.16,0,0,0,2.28,3.79,10.74,10.74,0,0,0,8.09,3.48,11.29,11.29,0,0,0,2.94-.35,14.37,14.37,0,0,0,2.38-.82,10.33,10.33,0,0,0,1.77-1c.48-.35.86-.64,1.13-.86a.56.56,0,0,1,.88,0l.14.18a.57.57,0,0,1,0,.88c-.27.24-.67.56-1.21,1a12,12,0,0,1-1.95,1.12,15.36,15.36,0,0,1-2.67.93,13.58,13.58,0,0,1-3.38.39,12.58,12.58,0,0,1-5.24-1.06,12.35,12.35,0,0,1-4-2.86A13,13,0,0,1,75,114.66,14.56,14.56,0,0,1,74.06,109.44Z"/><path class="cls-1" d="M101.6,99.5a.55.55,0,0,1-.62-.62V97.46a.55.55,0,0,1,.62-.63h.59a.55.55,0,0,1,.62.63v1.42a.55.55,0,0,1-.62.62Zm-.47,5.26a.55.55,0,0,1,.62-.62H102a.55.55,0,0,1,.62.62v17a.55.55,0,0,1-.62.62h-.29a.54.54,0,0,1-.62-.62Z"/><path class="cls-1" d="M109.38,105.64h-1.79A.55.55,0,0,1,107,105v-.15a.55.55,0,0,1,.62-.62h1.79V99.68a.55.55,0,0,1,.62-.62h.3a.55.55,0,0,1,.62.62v4.57h4.16a.55.55,0,0,1,.62.62V105a.55.55,0,0,1-.62.62h-4.16v10a7.08,7.08,0,0,0,.49,2.9,4.33,4.33,0,0,0,1.19,1.62,3.6,3.6,0,0,0,1.46.71,8.76,8.76,0,0,0,1.31.2c.49,0,.73.24.73.64v.18c0,.43-.2.64-.62.64a7.07,7.07,0,0,1-2.77-.49,4.75,4.75,0,0,1-1.9-1.39,5.76,5.76,0,0,1-1.08-2.14,10.17,10.17,0,0,1-.35-2.74Z"/><path class="cls-1" d="M120.27,99.5a.55.55,0,0,1-.62-.62V97.46a.55.55,0,0,1,.62-.63h.58a.55.55,0,0,1,.62.63v1.42a.55.55,0,0,1-.62.62Zm-.48,5.26a.55.55,0,0,1,.62-.62h.3a.55.55,0,0,1,.62.62v17a.55.55,0,0,1-.62.62h-.3a.55.55,0,0,1-.62-.62Z"/><path class="cls-1" d="M126.19,113.31a10.66,10.66,0,0,1,.73-4.09,8.85,8.85,0,0,1,2-3,8.49,8.49,0,0,1,2.83-1.86,9.12,9.12,0,0,1,3.36-.64,7.81,7.81,0,0,1,3.18.62,6.58,6.58,0,0,1,2.34,1.76,7.69,7.69,0,0,1,1.44,2.74,12.11,12.11,0,0,1,.49,3.58.58.58,0,0,1-.18.45.68.68,0,0,1-.47.17H127.79a9.59,9.59,0,0,0,.62,3.54,7.8,7.8,0,0,0,1.7,2.64,7.08,7.08,0,0,0,2.49,1.63,8.09,8.09,0,0,0,3,.55,7.38,7.38,0,0,0,1.75-.2,9.64,9.64,0,0,0,1.46-.47,6.82,6.82,0,0,0,1.15-.61,7.44,7.44,0,0,0,.79-.58c.34-.27.62-.23.84.11l.22.29a.51.51,0,0,1-.15.8,6.42,6.42,0,0,1-.89.66,8.34,8.34,0,0,1-1.34.68,11,11,0,0,1-1.73.55,8.78,8.78,0,0,1-2.1.23,9.86,9.86,0,0,1-3.65-.67,8.87,8.87,0,0,1-3-1.92,9.19,9.19,0,0,1-2-3A9.89,9.89,0,0,1,126.19,113.31Zm14.72-1.75a8.49,8.49,0,0,0-.57-2.86,5.93,5.93,0,0,0-1.3-2,5.14,5.14,0,0,0-1.84-1.18,6.39,6.39,0,0,0-2.17-.38,7.67,7.67,0,0,0-2.45.4,6.79,6.79,0,0,0-2.14,1.21,7,7,0,0,0-1.62,2,8.56,8.56,0,0,0-.92,2.79Z"/><path class="cls-1" d="M146.06,120.65a.54.54,0,0,1-.08-.84l.22-.25c.25-.3.54-.31.88,0a7.73,7.73,0,0,0,.77.57,8.44,8.44,0,0,0,2.61,1.09,7.84,7.84,0,0,0,1.81.2,5.62,5.62,0,0,0,1.6-.22,4,4,0,0,0,1.34-.66,3.42,3.42,0,0,0,.91-1.09,3.09,3.09,0,0,0,.35-1.49,2.5,2.5,0,0,0-.75-1.89,7.5,7.5,0,0,0-1.86-1.27,21.27,21.27,0,0,0-2.41-1,14.08,14.08,0,0,1-2.42-1.11,6.87,6.87,0,0,1-1.86-1.59,3.75,3.75,0,0,1-.75-2.43,4.58,4.58,0,0,1,.48-2.13,4.48,4.48,0,0,1,1.28-1.55A5.6,5.6,0,0,1,150,104a8.12,8.12,0,0,1,2.23-.31,10.16,10.16,0,0,1,1.81.16,9.22,9.22,0,0,1,1.44.41,7.84,7.84,0,0,1,1,.5,4.91,4.91,0,0,1,.68.47.55.55,0,0,1,.14.84l-.22.29c-.24.32-.53.34-.87.07a7.21,7.21,0,0,0-1.54-.84,6.66,6.66,0,0,0-2.59-.44,6.52,6.52,0,0,0-1.52.19,3.92,3.92,0,0,0-1.33.59,3,3,0,0,0-.93,1,3.13,3.13,0,0,0-.35,1.52,2.61,2.61,0,0,0,.75,1.95,6.77,6.77,0,0,0,1.86,1.27,24.61,24.61,0,0,0,2.41,1,16.18,16.18,0,0,1,2.41,1.11,6.21,6.21,0,0,1,1.87,1.61,3.88,3.88,0,0,1,.75,2.46,4.62,4.62,0,0,1-.44,2,4.5,4.5,0,0,1-1.23,1.55,6.12,6.12,0,0,1-1.86,1,7.28,7.28,0,0,1-2.32.36,9.73,9.73,0,0,1-2.25-.23,9.21,9.21,0,0,1-1.77-.57,6.94,6.94,0,0,1-1.31-.72A5.2,5.2,0,0,1,146.06,120.65Z"/></g></g></svg>