<svg xmlns="http://www.w3.org/2000/svg" viewBox="0 0 44.01 44.01"><defs><style>.cls-1,.cls-2{fill:#fff;}.cls-2{fill-rule:evenodd;}</style></defs><g id="Layer_2" data-name="Layer 2"><g id="Layer_1-2" data-name="Layer 1"><path class="cls-1" d="M22,44A22,22,0,1,1,44,22,22,22,0,0,1,22,44ZM22,4.35A17.66,17.66,0,1,0,39.66,22,17.68,17.68,0,0,0,22,4.35Z"/><path class="cls-2" d="M19.53,22.08v9.2a.24.24,0,0,0,.24.24h3.42a.24.24,0,0,0,.24-.24V21.93h2.48a.24.24,0,0,0,.24-.22l.23-2.82a.23.23,0,0,0-.23-.26H23.43v-2a.84.84,0,0,1,.85-.84h1.91a.24.24,0,0,0,.24-.24V12.73a.24.24,0,0,0-.24-.24H23a3.43,3.43,0,0,0-3.43,3.43v2.71H17.82a.24.24,0,0,0-.24.24v2.82a.24.24,0,0,0,.24.24h1.71Z"/></g></g></svg>