<svg xmlns="http://www.w3.org/2000/svg" xmlns:xlink="http://www.w3.org/1999/xlink" viewBox="0 0 44.01 44.01"><defs><style>.cls-1{fill:url(#linear-gradient);}.cls-2{fill:#00cbd3;}</style><linearGradient id="linear-gradient" x1="5.58" y1="46.23" x2="24.41" y2="18.45" gradientUnits="userSpaceOnUse"><stop offset="0" stop-color="#ff113a"/><stop offset="1" stop-color="#00cbd3"/></linearGradient></defs><g id="Layer_2" data-name="Layer 2"><g id="Layer_1-2" data-name="Layer 1"><path class="cls-1" d="M22,44A22,22,0,1,1,44,22,22,22,0,0,1,22,44ZM22,4.35A17.66,17.66,0,1,0,39.66,22,17.68,17.68,0,0,0,22,4.35Z"/><path class="cls-2" d="M27.23,15.73A1.17,1.17,0,1,0,28.4,16.9,1.17,1.17,0,0,0,27.23,15.73Z"/><path class="cls-2" d="M22,17.23a4.91,4.91,0,1,0,4.9,4.9A4.91,4.91,0,0,0,22,17.23Zm0,8a3.14,3.14,0,1,1,3.14-3.14A3.14,3.14,0,0,1,22,25.27Z"/><path class="cls-2" d="M26,12.08H18.06a6,6,0,0,0-6,6V26a6,6,0,0,0,6,6H26a6,6,0,0,0,6-6V18.06A6,6,0,0,0,26,12.08ZM30.06,26A4.11,4.11,0,0,1,26,30.06H18.06A4.11,4.11,0,0,1,14,26V18.06A4.11,4.11,0,0,1,18.06,14H26a4.11,4.11,0,0,1,4.11,4.11Z"/></g></g></svg>