<svg xmlns="http://www.w3.org/2000/svg" xmlns:xlink="http://www.w3.org/1999/xlink" viewBox="0 0 44.01 44.01"><defs><style>.cls-1{fill:url(#linear-gradient);}.cls-2,.cls-3{fill:#00cbd3;}.cls-3{fill-rule:evenodd;}</style><linearGradient id="linear-gradient" x1="5.58" y1="46.23" x2="24.41" y2="18.45" gradientUnits="userSpaceOnUse"><stop offset="0" stop-color="#ff113a"/><stop offset="1" stop-color="#00cbd3"/></linearGradient></defs><g id="Layer_2" data-name="Layer 2"><g id="Layer_1-2" data-name="Layer 1"><path class="cls-1" d="M22,44A22,22,0,1,1,44,22,22,22,0,0,1,22,44ZM22,4.35A17.66,17.66,0,1,0,39.66,22,17.68,17.68,0,0,0,22,4.35Z"/><path class="cls-2" d="M31.19,16.21a7.14,7.14,0,0,1-1.87.53c.3,0,.75-.59.92-.81a3.54,3.54,0,0,0,.63-1.14s0-.07,0-.09-.06,0-.1,0a9.76,9.76,0,0,1-2.22.84.14.14,0,0,1-.15,0c-.07-.07-.13-.14-.19-.19a3.87,3.87,0,0,0-1.08-.66,3.59,3.59,0,0,0-1.65-.27,4.1,4.1,0,0,0-1.57.44,4.32,4.32,0,0,0-1.26,1,3.76,3.76,0,0,0-.75,1.51,4.11,4.11,0,0,0,0,1.6c0,.09,0,.1-.08.09a11.88,11.88,0,0,1-7.63-3.89c-.09-.1-.14-.1-.21,0a3.87,3.87,0,0,0,.66,4.57,4.69,4.69,0,0,0,.47.42,3.94,3.94,0,0,1-1.48-.42c-.08-.05-.13,0-.14.08a2.22,2.22,0,0,0,0,.44,3.9,3.9,0,0,0,2.41,3.12,2.54,2.54,0,0,0,.49.15,4.48,4.48,0,0,1-1.45,0c-.1,0-.14,0-.1.14a4.08,4.08,0,0,0,3,2.54c.14,0,.28,0,.42,0s0,0,0,0a4.88,4.88,0,0,1-2.07,1.1,7.49,7.49,0,0,1-3.15.4c-.17,0-.2,0-.25,0s0,.07.05.11a7.16,7.16,0,0,0,.66.39,10,10,0,0,0,2.1.84,11.19,11.19,0,0,0,10.88-2.54,11.42,11.42,0,0,0,3-8.33c0-.12.14-.19.22-.25a7.21,7.21,0,0,0,1.48-1.54.43.43,0,0,0,.09-.29v0C31.26,16.16,31.27,16.18,31.19,16.21Z"/><path class="cls-3" d="M18.25,29.56Z"/><path class="cls-3" d="M18.25,29.56Z"/><path class="cls-3" d="M18.87,29.58s.33,0,0,0C18.87,29.56,18.91,29.58,18.87,29.58Z"/><path class="cls-3" d="M25.42,14.41h0Z"/></g></g></svg>