<svg xmlns="http://www.w3.org/2000/svg" viewBox="0 0 44.01 44.01"><defs><style>.cls-1{fill:#fff;}</style></defs><g id="Layer_2" data-name="Layer 2"><g id="Layer_1-2" data-name="Layer 1"><path class="cls-1" d="M22,44A22,22,0,1,1,44,22,22,22,0,0,1,22,44ZM22,4.35A17.66,17.66,0,1,0,39.66,22,17.68,17.68,0,0,0,22,4.35Z"/><path class="cls-1" d="M31.37,19.53a4.07,4.07,0,0,0-4.08-4.08H16.72a4.07,4.07,0,0,0-4.08,4.08v4.95a4.07,4.07,0,0,0,4.08,4.08H27.29a4.07,4.07,0,0,0,4.08-4.08ZM24.7,22.26l-4.22,2.31c-.18.1-.35,0-.35-.24V19.58c0-.21.17-.35.36-.24l4.24,2.43A.28.28,0,0,1,24.7,22.26Z"/></g></g></svg>