<svg width="320" height="451" viewBox="0 0 320 451" fill="none" xmlns="http://www.w3.org/2000/svg">
<path d="M15.5793 35.2824C15.8277 27.3697 22.1825 21.0123 30.095 20.7606L290.217 12.4859C298.606 12.219 305.582 18.888 305.692 27.2809L310.803 415.627C310.912 423.885 304.326 430.677 296.07 430.823L18.7519 435.722C10.1802 435.873 3.22532 428.822 3.49432 420.253L15.5793 35.2824Z" fill="#405764"/>
<path d="M56.4912 56.5498C135.898 -5.97109 170.881 -17.1927 243.069 30.7399C379.175 130.193 301.497 396.955 246.962 438.665C186.991 472.311 91.4176 421.449 38.6436 392.548C-26.7315 356.746 2.07256 99.3962 56.4912 56.5498Z" stroke="#60A7DB" stroke-width="1.8" stroke-miterlimit="10" stroke-linecap="round" stroke-linejoin="round" stroke-dasharray="10.33 10.33"/>
</svg>
