<svg width="342" height="307" viewBox="0 0 342 307" fill="none" xmlns="http://www.w3.org/2000/svg">
<path d="M18 32.0654C18 23.3766 25.3592 16.5053 34.0276 17.1006L306.028 35.7785C313.895 36.3187 320 42.8578 320 50.7432V273.852C320 281.769 313.847 288.323 305.945 288.822L33.9451 305.993C25.3062 306.539 18 299.679 18 291.023V32.0654Z" fill="#405764"/>
<path d="M60.3302 37.2095C145.231 -3.04187 182.634 -10.2665 259.816 20.5929C405.338 84.6217 322.287 256.365 263.978 283.218C199.858 304.879 97.6729 272.134 41.2479 253.527C-28.6501 230.478 2.14676 64.7943 60.3302 37.2095Z" stroke="#60A7DB" stroke-width="1.8" stroke-miterlimit="10" stroke-linecap="round" stroke-linejoin="round" stroke-dasharray="10.33 10.33"/>
</svg>
