<svg width="320" height="233" viewBox="0 0 320 233" fill="none" xmlns="http://www.w3.org/2000/svg">
<path d="M9.28769 36.584C8.31357 28.0922 14.6215 20.5043 23.1483 19.9107L284.508 1.71762C293.696 1.07803 301.285 8.79327 300.494 17.9697L283.235 218.174C282.545 226.182 275.665 232.223 267.635 231.872L43.288 222.059C35.9215 221.737 29.8815 216.109 29.0412 208.783L9.28769 36.584Z" fill="#405764"/>
<path d="M56.4912 30.7174C135.898 0.701935 170.881 -4.68544 243.069 18.3264C379.175 66.0728 301.497 194.142 246.962 214.166C186.991 230.319 91.4176 205.901 38.6436 192.026C-26.7315 174.838 2.07256 51.2875 56.4912 30.7174Z" stroke="#60A7DB" stroke-width="1.8" stroke-miterlimit="10" stroke-linecap="round" stroke-linejoin="round" stroke-dasharray="10.33 10.33"/>
</svg>
