<svg xmlns="http://www.w3.org/2000/svg" viewBox="0 0 562 478" width="562" height="478">
	<style>
		tspan { white-space:pre }
		.shp0 { fill: #405764 } 
		.shp1 { fill: none;stroke: #6fc396;stroke-linecap:round;stroke-linejoin:round;stroke-width: 1.8;stroke-dasharray: 11 } 
	</style>
	<path id="Layer" class="shp0" d="M78.5 110.51C92 68.51 149 49.01 197 46.01L491 37.01C555 58.01 541.75 110.47 538.19 166.86L527 347.51C523.54 402.22 507.5 427.01 461 439.01L83 422.51C14 413.51 -7 347.51 23 272.51L78.5 110.51Z" />
	<path id="Layer" class="shp1" d="M470 392.51C430.78 427.37 181 478 89.39 436.76C-7.82 392.99 34.97 120.54 132.5 77.51C234.5 32.51 243.81 15 432.5 56.51C548.2 95.36 591.5 284.51 470 392.51Z" />
</svg>