<svg xmlns="http://www.w3.org/2000/svg" viewBox="0 0 558 446" width="558" height="446">
	<style>
		tspan { white-space:pre }
		.shp0 { fill: #60a7db } 
		.shp1 { fill: none;stroke: #405764;stroke-linecap:round;stroke-linejoin:round;stroke-width: 1.8;stroke-dasharray: 11 } 
	</style>
	<path id="Layer" class="shp0" d="M540 165.51C537 81.51 485.83 52 432.39 47.94L120.75 24.29C41.99 18.31 10.5 60.51 22.5 150.51L37.5 344.01C45 429.51 111 413.01 160.5 413.01L418.5 422.01C463.5 422.01 462 407.01 481.5 363.51L540 165.51Z" />
	<path id="Layer" class="shp1" d="M104.5 72C207 24.51 300.92 -12.23 435 41.01C533.21 86.26 569.21 352.76 471 398.01C363 434.51 283.5 426.01 91.5 384.51C-26.23 345.67 4.9 118.15 104.5 72Z" />
</svg>