<svg xmlns="http://www.w3.org/2000/svg" viewBox="0 0 562 478" width="562" height="478">
	<style>
		tspan { white-space:pre }
		.shp0 { fill: #405764 } 
		.shp1 { fill: none;stroke: #60a7db;stroke-linecap:round;stroke-linejoin:round;stroke-width: 1.8;stroke-dasharray: 11 } 
	</style>
	<path id="Layer" class="shp0" d="M63.42 99.81C74.98 43.73 128.2 6.33 184.88 14.46L452.45 52.8C508.38 60.82 548.75 110.47 545.19 166.86L535.06 327.12C531.6 381.83 487.81 425.33 433.08 428.43L131.16 445.53C60.14 449.56 4.58 385.19 18.95 315.51L63.42 99.81Z" />
	<path id="Layer" class="shp1" d="M514 348.67C487 393.67 188 478 96.39 436.76C-0.82 392.99 -0.13 91.94 96.39 46.68C202.53 10.18 234.47 -4.33 423.16 37.18C538.86 76.03 567.48 259.54 514 348.67Z" />
</svg>