<svg width="1130" height="8387" viewBox="0 0 1130 8387" fill="none" xmlns="http://www.w3.org/2000/svg">
<path opacity="0.1" d="M100.015 1C100.182 52.5882 154.516 166.178 370.519 207.831C586.522 249.483 870.525 417.527 985.527 496.343C1074.69 571.655 1214.33 801.287 1059.53 1117.31C904.726 1433.34 435.686 1728.57 220.517 1836.68C87.5153 1911.04 -123.487 2142.49 96.5155 2473.41C152.349 2546.98 343.019 2666.01 659.023 2553.66C975.027 2441.31 976.36 2729.13 937.526 2887.08C904.526 3045.98 775.024 3427.99 521.021 3684.78C267.018 3941.58 175.516 4079.66 161.516 4116.6C110.349 4249.07 107.716 4587.67 506.521 4882.3C905.326 5176.92 944.026 5530.81 913.526 5670.93C894.359 5798.47 808.025 6147.74 616.022 6524.52C424.02 6901.31 368.019 7490.69 364.019 7738.28C362.519 7884.93 391.619 8219.77 520.021 8386" stroke="black" stroke-width="1.8" stroke-dasharray="7.92 7.92"/>
</svg>
