<svg width="742" height="448" viewBox="0 0 742 448" fill="none" xmlns="http://www.w3.org/2000/svg">
<path d="M179.524 79.118C198.729 51.316 229.809 34.0691 263.562 32.483L628.596 15.3291C690.347 12.4273 742 61.7097 742 123.529V322.606C742 388.697 683.326 439.381 617.938 429.775L172.44 364.332C93.0062 352.663 53.4287 261.656 99.0609 195.598L179.524 79.118Z" fill="#405764"/>
<path d="M238.989 53.2238C382.071 -5.00899 445.107 -15.461 575.182 29.1841C820.428 121.817 680.462 370.283 582.195 409.131C474.134 440.47 301.922 393.096 206.829 366.177C89.0309 332.831 140.933 93.1317 238.989 53.2238Z" stroke="#6FC396" stroke-width="1.8" stroke-miterlimit="10" stroke-linecap="round" stroke-linejoin="round" stroke-dasharray="10.33 10.33"/>
</svg>
