<svg width="560" height="493" viewBox="0 0 560 493" fill="none" xmlns="http://www.w3.org/2000/svg">
<path d="M79.3865 107.854C89.8104 60.5954 130.318 25.9851 178.625 23.0637L428.37 7.96032C496.516 3.83923 551.435 63.021 542.242 130.669L506.474 393.858C498.866 449.839 449.51 490.572 393.102 487.422L127.673 472.601C61.0098 468.879 13.5538 406.318 27.9349 341.119L79.3865 107.854Z" fill="#6FC396"/>
<path d="M90.8794 121.271C357.306 94.3398 216.112 -68.5332 460.612 45.3051C557.13 90.2312 557.129 387.603 460.611 432.529C354.474 468.77 322.534 483.167 133.844 441.963C18.1421 403.401 -17.0019 121.271 90.8794 121.271Z" stroke="#60A7DB" stroke-width="1.8" stroke-miterlimit="10" stroke-linecap="round" stroke-linejoin="round" stroke-dasharray="10.33 10.33"/>
</svg>
