<svg width="604" height="496" viewBox="0 0 604 496" fill="none" xmlns="http://www.w3.org/2000/svg">
<path d="M26.6118 125.995C30.4971 59.7374 92.5147 12.5242 157.416 26.4154L471.751 93.6941C539.58 108.212 576.474 181.853 547.492 244.873L462.406 429.884C444.018 469.868 403.264 494.752 359.296 492.843L115.872 482.271C55.4628 479.648 8.89819 428.076 12.4378 367.713L26.6118 125.995Z" fill="#60A7DB"/>
<path d="M79 99.8513C222 32.5203 285 20.4353 415 72.0557C513.211 116.974 577.288 412.545 479.077 457.464C371.078 493.698 278.5 472.61 86.5 431.413C-31.231 392.857 -19 145.994 79 99.8513Z" stroke="#405764" stroke-width="1.8" stroke-miterlimit="10" stroke-linecap="round" stroke-linejoin="round" stroke-dasharray="10.33 10.33"/>
</svg>
