<svg width="776" height="398" viewBox="0 0 776 398" fill="none" xmlns="http://www.w3.org/2000/svg">
<path d="M44.6206 93.8261C56.8667 36.0731 109.91 -3.74204 168.785 0.626278L600.212 32.6365C644.555 35.9266 683.283 63.8644 700.394 104.905L744.873 211.592C777.279 289.321 720.172 375 635.96 375H130.645C55.6242 375 -0.350435 305.912 15.211 232.523L44.6206 93.8261Z" fill="#EA3844"/>
<path d="M686.932 321.951C408.066 432.056 366.139 415.38 87.2206 305.275C-22.8842 261.822 -29.46 112 80.6449 68.5468C359.563 -41.5054 392.705 3.94639 681.25 85.486C813.239 122.784 797.037 278.498 686.932 321.951Z" stroke="#405764" stroke-width="1.8" stroke-miterlimit="10" stroke-linecap="round" stroke-linejoin="round" stroke-dasharray="11.57 11.57"/>
</svg>
