<svg width="56" height="56" viewBox="0 0 56 56" fill="none" xmlns="http://www.w3.org/2000/svg">
<circle cx="28" cy="28" r="26.9" stroke="white" stroke-width="1.8" stroke-dasharray="6.05 3.63"/>
<g clip-path="url(#clip0)">
<path d="M26.9297 19.136L27.9703 18.0954C28.4109 17.6547 29.1234 17.6547 29.5594 18.0954L38.6719 27.2032C39.1125 27.6438 39.1125 28.3563 38.6719 28.7922L29.5594 37.9047C29.1188 38.3454 28.4063 38.3454 27.9703 37.9047L26.9297 36.8641C26.4844 36.4188 26.4938 35.6922 26.9484 35.2563L32.5969 29.875H19.125C18.5016 29.875 18 29.3735 18 28.75V27.25C18 26.6266 18.5016 26.125 19.125 26.125H32.5969L26.9484 20.7438C26.4891 20.3079 26.4797 19.5813 26.9297 19.136Z" fill="white"/>
</g>
<defs>
<clipPath id="clip0">
<rect width="21" height="24" fill="white" transform="translate(18 16)"/>
</clipPath>
</defs>
</svg>
