<svg xmlns="http://www.w3.org/2000/svg" viewBox="0 0 41 39" width="41" height="39">
	<style>
		tspan { white-space:pre }
		.shp0 { fill: #60a7db } 
	</style>
	<path id="Layer" class="shp0" d="M31.61 38.19C31.36 38.19 31.11 38.12 30.9 37.97L20.02 30.46L9.14 37.97C8.93 38.12 8.67 38.19 8.42 38.19C8.16 38.19 7.91 38.11 7.7 37.96C7.49 37.81 7.34 37.6 7.25 37.36C7.16 37.12 7.15 36.86 7.22 36.61L10.63 24.09L7.97 21.94C7.74 21.72 7.59 21.42 7.57 21.11C7.54 20.79 7.64 20.47 7.84 20.22C8.04 19.98 8.33 19.81 8.65 19.77C8.96 19.73 9.28 19.81 9.54 19.99L12.84 22.66C13.03 22.82 13.17 23.02 13.24 23.25C13.32 23.48 13.33 23.73 13.26 23.97L10.53 33.97L19.31 27.92C19.52 27.78 19.76 27.7 20.02 27.7C20.27 27.7 20.52 27.78 20.73 27.92L29.51 33.97L26.77 23.97C26.71 23.73 26.71 23.48 26.79 23.25C26.86 23.02 27 22.82 27.19 22.66L35.42 16L25.28 15.6C25.04 15.59 24.81 15.51 24.61 15.37C24.42 15.23 24.26 15.04 24.17 14.82L20.02 4.58L15.87 14.81C15.78 15.03 15.62 15.23 15.43 15.37C15.23 15.5 15 15.58 14.76 15.59L4.62 16L5.79 16.95C5.92 17.05 6.03 17.18 6.1 17.32C6.18 17.47 6.23 17.63 6.25 17.79C6.27 17.95 6.25 18.12 6.2 18.28C6.16 18.43 6.08 18.58 5.98 18.71C5.87 18.84 5.75 18.94 5.6 19.02C5.46 19.1 5.3 19.15 5.13 19.17C4.97 19.18 4.81 19.17 4.65 19.12C4.49 19.07 4.34 19 4.22 18.89L0.46 15.85C0.27 15.69 0.12 15.48 0.05 15.23C-0.02 14.99 -0.02 14.73 0.06 14.49C0.14 14.25 0.3 14.03 0.5 13.88C0.7 13.73 0.95 13.64 1.2 13.63L13.85 13.13L18.85 0.78C18.95 0.55 19.11 0.35 19.31 0.21C19.52 0.07 19.76 0 20.01 0C20.26 0 20.51 0.07 20.71 0.21C20.92 0.35 21.08 0.55 21.17 0.78L26.18 13.13L38.83 13.63C39.08 13.64 39.33 13.73 39.53 13.88C39.73 14.03 39.88 14.25 39.96 14.49C40.04 14.73 40.05 14.99 39.98 15.23C39.91 15.48 39.76 15.69 39.56 15.85L29.4 24.09L32.82 36.61C32.87 36.8 32.88 36.99 32.84 37.18C32.8 37.37 32.72 37.55 32.61 37.7C32.49 37.85 32.34 37.98 32.17 38.06C31.99 38.15 31.8 38.19 31.61 38.19L31.61 38.19Z" />
</svg>