<svg width="48" height="54" viewBox="0 0 48 54" fill="none" xmlns="http://www.w3.org/2000/svg">
<g clip-path="url(#clip0)">
<path d="M47.5351 9.24927C47.4104 7.89825 46.2984 6.87979 44.9474 6.87979H38.2235V5.89251H38.3586C39.3147 5.89251 40.0941 5.11308 40.0941 4.15697V1.73554C40.0941 0.779433 39.3147 0 38.3586 0H18.5714C18.1453 0 17.792 0.353343 17.792 0.779433C17.792 1.20552 18.1453 1.55887 18.5714 1.55887H38.3586C38.4625 1.55887 38.5353 1.642 38.5353 1.73554V4.15697C38.5353 4.2609 38.4521 4.33364 38.3586 4.33364H9.2182C9.11427 4.33364 9.04153 4.25051 9.04153 4.15697V1.73554C9.04153 1.63161 9.12467 1.55887 9.2182 1.55887H14.9236C15.3497 1.55887 15.7031 1.20552 15.7031 0.779433C15.7031 0.353343 15.3497 0 14.9236 0H9.2182C8.26209 0 7.48266 0.779433 7.48266 1.73554V4.15697C7.48266 5.11308 8.26209 5.89251 9.2182 5.89251H9.3533V6.87979H2.6294C1.26799 6.87979 0.155996 7.89825 0.0416788 9.24927C0.0208939 9.42594 -0.322056 13.6245 1.3927 18.2803C2.96195 22.5412 6.57852 27.9764 14.8509 30.1069C16.1811 31.1565 17.6984 31.9775 19.3508 32.5179L19.7457 33.1623C20.4836 34.3886 20.8785 35.8331 20.8785 37.3504C20.8785 38.2753 20.733 39.1795 20.442 40.0317L19.9016 41.6321H18.0829C16.2227 41.6321 14.7054 43.1494 14.7054 45.0096V46.6412H11.8683C11.0681 46.6412 10.4133 47.296 10.4133 48.0962V51.7543C10.4133 52.5545 11.0681 53.2093 11.8683 53.2093H35.6981C36.4983 53.2093 37.1531 52.5545 37.1531 51.7543V48.0962C37.1531 47.296 36.4983 46.6412 35.6981 46.6412H32.861V45.0096C32.861 43.1494 31.3437 41.6321 29.4834 41.6321H27.6752L27.1348 40.0317C26.8438 39.1795 26.6983 38.2753 26.6983 37.3504C26.6983 35.8331 27.0932 34.3886 27.831 33.1623L28.226 32.5179C29.8784 31.9879 31.3957 31.1565 32.7259 30.1069C40.9983 27.9764 44.6148 22.5412 46.1841 18.2803C47.8988 13.6245 47.5559 9.42594 47.5351 9.24927ZM9.6339 21.6474C8.17896 20.286 7.06696 18.6025 6.30832 16.5863C5.7783 15.1937 5.43535 13.666 5.27947 12.076H9.3533V18.7687C9.3533 19.756 9.44683 20.7225 9.6339 21.6474ZM2.85803 17.7399C1.25759 13.4166 1.57976 9.55065 1.59015 9.38437C1.64211 8.84396 2.0786 8.43866 2.6294 8.43866H9.3533V10.5171H5.21711C4.79102 10.5171 4.39611 10.6938 4.10512 11.0056C3.82452 11.3174 3.67903 11.7331 3.7206 12.1591C3.88688 13.9155 4.26101 15.599 4.85338 17.1371C6.00694 20.1925 7.87757 22.5828 10.4445 24.2767C10.9537 25.4926 11.6189 26.6254 12.4191 27.6543C6.76558 25.316 4.10512 21.1278 2.85803 17.7399ZM35.5942 48.2001V51.6504H11.9826V48.2001H35.5942ZM29.4938 43.2013C30.4915 43.2013 31.3125 44.012 31.3125 45.02V46.6516H16.2747V45.02C16.2747 44.0224 17.0853 43.2013 18.0933 43.2013H29.4938ZM25.659 40.5305L26.0332 41.6321H21.5436L21.9178 40.5305C22.2607 39.512 22.4374 38.4416 22.4374 37.3504C22.4374 35.8123 22.0944 34.3366 21.4397 33.0272C22.1984 33.1519 22.9882 33.2142 23.7884 33.2142C24.5886 33.2142 25.368 33.1519 26.1371 33.0272C25.4824 34.3366 25.1394 35.8227 25.1394 37.3504C25.1394 38.4416 25.3161 39.512 25.659 40.5305ZM23.7884 31.6554C16.6904 31.6554 10.9122 25.8772 10.9122 18.7791V5.89251H36.675V18.7687C36.6646 25.8772 30.8864 31.6554 23.7884 31.6554ZM44.7188 17.7399C43.4717 21.1174 40.8112 25.316 35.1577 27.6543C35.9579 26.6254 36.623 25.4926 37.1323 24.2767C39.3355 22.8114 41.0294 20.8472 42.1934 18.3842C42.3805 17.9997 42.2142 17.532 41.8193 17.345C41.4347 17.1579 40.9671 17.3242 40.78 17.7191C40.0629 19.2468 39.1068 20.5562 37.9325 21.6578C38.1196 20.7225 38.2235 19.7664 38.2235 18.7791V12.0864H42.2973C42.2246 12.8866 42.0895 13.6868 41.9128 14.4559C41.8193 14.8716 42.0791 15.2977 42.4948 15.3912C42.9105 15.4847 43.3366 15.2249 43.4301 14.8092C43.6275 13.957 43.773 13.0633 43.8562 12.1799C43.8978 11.7642 43.7523 11.3381 43.4717 11.0264C43.1911 10.7146 42.7858 10.5379 42.3597 10.5379H38.2235V8.45944H44.9474C45.4878 8.45944 45.9347 8.86475 45.9866 9.40515C45.997 9.55065 46.3192 13.4166 44.7188 17.7399Z" fill="#405764"/>
<path d="M28.9117 15.1416L26.6773 14.8194C26.5838 14.8091 26.5006 14.7467 26.4487 14.6532L25.451 12.6266C25.1392 11.9927 24.4949 11.5874 23.7882 11.5874C23.0711 11.5874 22.4372 11.9823 22.1254 12.6266L21.1277 14.6532C21.0862 14.7363 21.003 14.7987 20.8991 14.8194L18.6647 15.1416C17.9581 15.2455 17.3865 15.7236 17.1682 16.4095C16.95 17.085 17.1267 17.8125 17.6359 18.3113L19.2571 19.891C19.3299 19.9637 19.361 20.0572 19.3403 20.1508L18.9557 22.3747C18.831 23.0814 19.122 23.7777 19.6936 24.1934C20.2652 24.6091 21.0238 24.6611 21.6474 24.3389L23.6427 23.2893C23.7259 23.2477 23.8298 23.2477 23.9233 23.2893L25.9187 24.3389C26.1889 24.4844 26.4902 24.5572 26.7812 24.5572C27.1658 24.5572 27.5503 24.4325 27.8724 24.2038C28.444 23.7881 28.735 23.0918 28.6103 22.3851L28.2258 20.1612C28.205 20.0676 28.2362 19.9637 28.3089 19.9014L29.9301 18.3217C30.4394 17.8229 30.616 17.0954 30.3978 16.4199C30.19 15.7236 29.6184 15.2351 28.9117 15.1416ZM28.8597 17.1889L27.2385 18.7686C26.802 19.1947 26.6046 19.8078 26.7085 20.4106L27.093 22.6346C27.1242 22.7904 27.0307 22.884 26.9787 22.9255C26.9267 22.9671 26.802 23.0191 26.6669 22.9463L24.6716 21.8967C24.4014 21.7512 24.1 21.6785 23.809 21.6785C23.518 21.6785 23.2166 21.7512 22.9464 21.8967L20.9511 22.9463C20.8056 23.0191 20.6913 22.9671 20.6393 22.9255C20.5873 22.884 20.4938 22.7904 20.525 22.6346L20.9095 20.4106C21.0134 19.8078 20.816 19.1947 20.3795 18.7686L18.7583 17.1889C18.644 17.0746 18.6647 16.9499 18.6855 16.8875C18.7063 16.8252 18.7687 16.7109 18.9246 16.6797L21.1589 16.3575C21.7617 16.2744 22.2917 15.8899 22.5619 15.3391L23.5596 13.3125C23.6323 13.1671 23.757 13.1463 23.8298 13.1463C23.9025 13.1463 24.0272 13.1671 24.1 13.3125L25.0977 15.3391C25.3679 15.8899 25.8875 16.264 26.5006 16.3575L28.735 16.6797C28.8909 16.7005 28.9532 16.8148 28.974 16.8875C28.9532 16.9499 28.974 17.0746 28.8597 17.1889Z" fill="#405764"/>
</g>
<defs>
<clipPath id="clip0">
<rect width="47.5766" height="53.2093" fill="white"/>
</clipPath>
</defs>
</svg>
