<svg width="71" height="71" viewBox="0 0 71 71" fill="none" xmlns="http://www.w3.org/2000/svg">
<path d="M35.3763 9.02199C36.1476 9.02199 36.7729 8.39672 36.7729 7.62543V1.39656C36.7729 0.625271 36.1476 0 35.3763 0C34.605 0 33.9797 0.625271 33.9797 1.39656V7.62543C33.9799 8.39672 34.6051 9.02199 35.3763 9.02199Z" fill="#60A7DB"/>
<path d="M69.5135 47.9784L67.0464 45.5182C66.1687 44.6416 64.999 44.1588 63.7526 44.1588C62.9557 44.1588 62.1906 44.3571 61.5127 44.7286L56.8636 40.085L57.09 39.8588C58.9761 37.969 58.9754 34.8981 57.0899 33.0147C56.4161 32.3396 55.5753 31.8895 54.6588 31.7001C54.785 31.2645 54.8514 30.8083 54.8514 30.3414C54.8514 29.0441 54.3475 27.8277 53.4353 26.9192C52.7614 26.2442 51.9207 25.794 51.0043 25.6046C51.1304 25.1691 51.1969 24.713 51.1969 24.2459C51.1969 22.9485 50.6929 21.7322 49.7792 20.8224C49.0892 20.1332 48.2409 19.6969 47.3503 19.5112C47.8267 17.8684 47.4196 16.02 46.1272 14.7254C45.0514 13.6542 43.5916 13.1938 42.1847 13.343L32.9721 11.5992C31.567 11.3327 29.8124 11.1564 28.7049 12.1666C28.635 12.2304 28.5637 12.3038 28.4935 12.3854C26.7762 11.7595 24.7732 12.1322 23.398 13.5059C22.4857 14.4171 21.9831 15.633 21.9831 16.9296C21.9831 17.3966 22.0493 17.8527 22.1753 18.2884C21.2598 18.4777 20.4202 18.9273 19.7486 19.6001C18.8345 20.5105 18.3304 21.725 18.3294 23.0201C18.329 23.4882 18.3954 23.9458 18.5222 24.3826C17.6062 24.5715 16.766 25.0203 16.0924 25.6931C15.1782 26.6062 14.6749 27.8228 14.6749 29.1187C14.6749 30.1113 14.9712 31.0569 15.5203 31.8557C14.827 32.0907 14.1919 32.4819 13.6601 33.0132C11.7727 34.8981 11.772 37.9692 13.6613 39.8618L13.8869 40.0864L9.23726 44.7276C7.50927 43.914 5.38024 44.2188 3.95428 45.643L1.48564 48.1047C0.607572 48.9816 0.124162 50.1515 0.124023 51.3986C0.124023 52.6458 0.607572 53.8157 1.48564 54.6928L4.56652 57.77C5.11219 58.3151 5.9965 58.3145 6.54148 57.7689C7.0866 57.2232 7.08604 56.3389 6.54037 55.7939L3.4595 52.7168C3.10977 52.3675 2.91715 51.8993 2.91715 51.3987C2.91715 50.8982 3.10977 50.4302 3.45867 50.0817L5.92744 47.6199C6.54425 47.0038 7.48833 46.912 8.20527 47.3406C8.25574 47.4165 8.31412 47.4886 8.38096 47.5555C8.50064 47.6755 8.63723 47.7674 8.78228 47.8347L22.9397 61.9713C23.007 62.1179 23.0993 62.2559 23.2198 62.3765C23.3371 62.494 23.471 62.5848 23.613 62.6516C23.9124 62.9901 24.0778 63.4225 24.0778 63.8837C24.0778 64.3843 23.8852 64.8524 23.5354 65.2017L21.0692 67.665C20.3404 68.3906 19.1551 68.3904 18.4286 67.6673L15.3477 64.5861C14.8023 64.0407 13.9181 64.0407 13.3727 64.5861C12.8273 65.1315 12.8273 66.0157 13.3727 66.5611L16.4558 69.6444C17.3633 70.5482 18.555 70.9998 19.7473 70.9998C20.9399 70.9998 22.1331 70.5475 23.0416 69.6429L25.5094 67.178C26.3875 66.3009 26.8711 65.1311 26.8711 63.8837C26.8711 62.9936 26.6235 62.1435 26.1633 61.4105L31.3962 56.184C31.4017 56.1783 31.4073 56.1726 31.413 56.1669C32.0122 55.5475 33.6808 55.6634 35.2945 55.7755C36.4411 55.8552 37.7194 55.9438 38.9682 55.7999L44.6987 61.5235C44.3275 62.2004 44.1293 62.9645 44.1293 63.7602C44.1293 65.0061 44.6129 66.1753 45.4909 67.0524L47.9589 69.5173C48.8364 70.3938 50.0061 70.8767 51.2525 70.8767C52.4987 70.8767 53.6684 70.394 54.5461 69.5173L69.5145 54.5671C70.3925 53.6901 70.8761 52.5203 70.8761 51.2731C70.8759 50.026 70.3924 48.8561 69.5135 47.9784ZM32.452 14.3435L38.5102 15.4902L34.8841 19.1149C34.3231 18.8453 33.5543 18.3425 32.7109 17.5357C31.5565 16.4313 30.7307 15.1563 30.6556 14.361C30.6554 14.3606 30.6554 14.3601 30.6554 14.3597C30.6554 14.3596 30.6553 14.3594 30.6553 14.3593C30.6499 14.3022 30.6485 14.2565 30.6492 14.2217C30.8318 14.1774 31.3169 14.1281 32.452 14.3435ZM25.3717 15.4821C26.0792 14.7753 27.1784 14.6938 27.9778 15.2352C28.4308 17.1347 30.0512 18.8563 30.7802 19.5538C31.3205 20.0708 33.054 21.6207 34.8038 22.0467C35.0405 22.386 35.1693 22.7906 35.1693 23.2174C35.1693 23.7672 34.9578 24.2813 34.5725 24.6662C34.1882 25.0512 33.6733 25.2631 33.1225 25.2631C32.5716 25.2631 32.0567 25.0512 31.6706 24.6644L31.6705 24.6643L31.6698 24.6636L25.3716 18.3768C24.9876 17.9933 24.7761 17.4793 24.7761 16.9296C24.7763 16.3798 24.9878 15.8657 25.3717 15.4821ZM21.7224 21.5763C22.1067 21.1915 22.621 20.9795 23.171 20.9795C23.7217 20.9795 24.2377 21.1919 24.6244 21.5783L29.6959 26.6397C30.4946 27.4395 30.4946 28.7411 29.6987 29.5382C29.3124 29.923 28.7957 30.1349 28.2439 30.1349C27.6921 30.1349 27.1754 29.923 26.7908 29.5399L26.7906 29.5397L22.9432 25.6931C22.9372 25.6871 22.9307 25.6816 22.9246 25.6755L21.7209 24.4724C21.3347 24.0866 21.1221 23.5716 21.1226 23.0221C21.1231 22.4745 21.335 21.9621 21.7224 21.5763ZM18.0662 27.6693C18.4508 27.2853 18.9662 27.0738 19.5178 27.0738C20.0649 27.0738 20.5759 27.2823 20.9588 27.6596L24.818 31.517C25.2028 31.9003 25.4149 32.4138 25.4149 32.963C25.4149 33.512 25.2028 34.0255 24.8165 34.4103C24.4321 34.7941 23.9172 35.0056 23.3665 35.0056C22.815 35.0056 22.2985 34.7936 21.9135 34.4103L20.5145 33.0129C20.5142 33.0125 20.5138 33.0122 20.5135 33.0119L18.0664 30.5677C17.6806 30.1823 17.4681 29.6676 17.4681 29.1184C17.4681 28.5694 17.6806 28.0545 18.0662 27.6693ZM15.6339 34.9892C16.0201 34.6035 16.5363 34.391 17.0872 34.391C17.638 34.391 18.154 34.6033 18.5401 34.9888L19.9411 36.3882C20.326 36.7715 20.5379 37.285 20.5379 37.8341C20.5379 38.3832 20.3259 38.8966 19.9382 39.2829C19.5539 39.6678 19.039 39.8798 18.4882 39.8798C17.9373 39.8798 17.4224 39.6679 17.0353 39.2802L16.8599 39.1054C16.8576 39.1031 16.8558 39.1006 16.8535 39.0984C16.8509 39.0959 16.8481 39.0936 16.8455 39.0912L15.6353 37.8857C14.8367 37.0854 14.836 35.7862 15.6339 34.9892ZM44.0941 50.8613C43.549 50.3155 42.6647 50.3151 42.1191 50.8601L40.8766 52.1011C39.696 53.2817 37.5567 53.1331 35.4879 52.9895C33.2412 52.8334 30.9181 52.6723 29.4147 54.2157L24.2707 59.3535L11.4071 46.5087L15.9594 41.9646C16.7118 42.4258 17.58 42.673 18.4885 42.673C19.7863 42.673 21.0033 42.1699 21.9123 41.2593C22.8274 40.3479 23.3315 39.1316 23.3315 37.8342C23.3315 37.8222 23.3306 37.8102 23.3306 37.7982C23.3427 37.7983 23.3548 37.799 23.3668 37.799C24.6628 37.799 25.8789 37.2974 26.7891 36.3883C27.7042 35.4769 28.2083 34.2605 28.2083 32.9632C28.2083 32.9512 28.2074 32.9393 28.2074 32.9272C28.2196 32.9272 28.2318 32.928 28.2442 32.928C29.5398 32.928 30.7565 32.427 31.6728 31.5144C32.6241 30.5616 33.0947 29.3072 33.0856 28.0554C33.0981 28.0555 33.1106 28.0562 33.1231 28.0562C34.4209 28.0561 35.6378 27.5531 36.5481 26.6411C37.4605 25.7298 37.963 24.514 37.963 23.2174C37.963 22.3106 37.7164 21.4438 37.2567 20.6929L41.2467 16.7045C41.5441 16.4085 41.9107 16.2226 42.295 16.146C42.3366 16.1415 42.3776 16.1349 42.4183 16.1268C43.0348 16.0418 43.6822 16.2321 44.1537 16.7016C44.9523 17.5016 44.9523 18.8032 44.1566 19.6003L42.9415 20.8105C42.9374 20.8145 42.9331 20.8181 42.9291 20.8221L41.5295 22.2194C40.9837 22.7643 40.9831 23.6487 41.5283 24.1943C42.0735 24.7401 42.9577 24.7406 43.5032 24.1956L44.7233 22.9772C44.7235 22.9769 44.7238 22.9767 44.7241 22.9764L44.9085 22.7926C45.7093 21.9992 47.0068 22.0008 47.8068 22.7997C48.1917 23.183 48.4037 23.6965 48.4037 24.2456C48.4037 24.7946 48.1917 25.3081 47.8037 25.6945L46.5816 26.9191C46.5815 26.9192 46.5813 26.9194 46.5812 26.9196L45.1817 28.3134C44.6352 28.8577 44.6334 29.742 45.1777 30.2884C45.722 30.8349 46.6061 30.8366 47.1526 30.2924L48.5585 28.8923C48.9428 28.5073 49.4576 28.2954 50.0085 28.2954C50.5594 28.2954 51.0744 28.5073 51.4615 28.895C51.8464 29.2785 52.0583 29.792 52.0583 30.3411C52.0583 30.8901 51.8464 31.4036 51.4592 31.7891L49.0228 34.2265C48.4775 34.7721 48.4777 35.6562 49.0231 36.2015C49.2958 36.4741 49.653 36.6103 50.0104 36.6103C50.3679 36.6103 50.7254 36.4739 50.998 36.2011L52.1921 35.0066C52.1989 35.0001 52.2063 34.9944 52.2131 34.9876C52.5973 34.6026 53.1122 34.3907 53.663 34.3907C54.214 34.3907 54.7288 34.6026 55.1145 34.989C55.9123 35.7859 55.9116 37.0853 55.1145 37.8837L53.9004 39.0964C53.9 39.0968 53.8994 39.0973 53.899 39.0977C53.8986 39.0981 53.8982 39.0986 53.8978 39.0991L51.9708 41.0237C51.4251 41.5688 51.4246 42.4531 51.9696 42.9988C52.2423 43.2718 52.6001 43.4084 52.9577 43.4084C53.3148 43.4084 53.672 43.2722 53.9447 43L54.8872 42.0586L59.4047 46.5708L46.5422 59.4177L41.9336 54.8146C42.2549 54.608 42.5623 54.365 42.8509 54.0765L44.0927 52.8362C44.6387 52.2913 44.6392 51.407 44.0941 50.8613ZM67.5405 52.5909L52.5721 67.5411C52.2219 67.8908 51.7532 68.0834 51.2523 68.0834C50.7515 68.0834 50.2827 67.8908 49.9325 67.5409L47.4645 65.076C47.1148 64.7269 46.9222 64.2595 46.9222 63.7602C46.9222 63.261 47.1148 62.7936 47.4645 62.4443L62.4329 47.4941C62.7832 47.1442 63.2518 46.9516 63.7528 46.9516C64.2537 46.9516 64.7224 47.1442 65.0735 47.4949L67.5406 49.9551C67.8903 50.3044 68.0829 50.7723 68.0829 51.2729C68.0828 51.7737 67.8902 52.2417 67.5405 52.5909Z" fill="#60A7DB"/>
<path d="M16.8318 7.84465C17.1044 8.11672 17.4613 8.25262 17.8183 8.25262C18.176 8.25262 18.534 8.11589 18.8067 7.84257C19.3516 7.29662 19.3507 6.41244 18.8048 5.8676L13.7158 0.788744C13.17 0.243903 12.2857 0.244596 11.7408 0.790686C11.196 1.33664 11.1968 2.22081 11.7428 2.76565L16.8318 7.84465Z" fill="#60A7DB"/>
<path d="M52.9341 8.25257C53.2912 8.25257 53.6484 8.11639 53.9211 7.84418L59.0062 2.76518C59.5518 2.2202 59.5524 1.33589 59.0073 0.790217C58.4623 0.244544 57.5781 0.243989 57.0323 0.789108L51.9472 5.8681C51.4015 6.41308 51.401 7.2974 51.9461 7.84307C52.2189 8.11611 52.5765 8.25257 52.9341 8.25257Z" fill="#60A7DB"/>
<path d="M8.71119 60.0733C8.1705 60.6232 8.17799 61.5076 8.7281 62.0482L8.73213 62.0521C9.00351 62.3189 9.35587 62.4518 9.7081 62.4518C10.0696 62.4518 10.4311 62.3119 10.705 62.0333C11.2457 61.4833 11.2361 60.597 10.6861 60.0564C10.1363 59.5157 9.25215 59.5233 8.71119 60.0733Z" fill="#60A7DB"/>
<path d="M47.5097 48.8495C47.7222 48.8495 47.9377 48.8012 48.14 48.6992C48.8286 48.3519 49.1053 47.5121 48.758 46.8234C48.4107 46.1348 47.5707 45.858 46.8822 46.2054L46.8745 46.2092C46.1858 46.5566 45.9131 47.3945 46.2603 48.0831C46.5055 48.5696 46.9986 48.8495 47.5097 48.8495Z" fill="#60A7DB"/>
</svg>
