<svg width="55" height="71" viewBox="0 0 55 71" fill="none" xmlns="http://www.w3.org/2000/svg">
<path d="M53.191 58.9666C52.6169 58.9666 52.1517 59.4319 52.1517 60.006V68.7195C52.1517 68.8309 52.0611 68.9214 51.9498 68.9214H37.6412C37.6193 68.9214 37.5974 68.9178 37.5764 68.9108L32.5143 67.1965C31.7073 66.923 30.8237 67.1189 30.2078 67.7072L28.9949 68.8657C28.9571 68.9018 28.9076 68.9216 28.8553 68.9216H2.9739C2.86255 68.9216 2.772 68.831 2.772 68.7197V57.8622C2.772 57.8098 2.79196 57.7602 2.82816 57.7224L4.52564 55.952C4.85637 55.607 5.06757 55.1749 5.13635 54.7019L5.85717 49.7445C5.97476 48.9359 5.64763 48.1212 5.00378 47.6188L2.17598 45.4113C2.12662 45.3727 2.09833 45.3148 2.09833 45.2524V29.5801C2.09833 29.5382 2.11109 29.4979 2.13535 29.4635L4.22874 26.5024C4.23277 26.4967 4.23706 26.4912 4.24192 26.4856L5.57469 24.9546C6.0129 24.4513 6.20842 23.784 6.11066 23.1237C6.01303 22.4635 5.63294 21.881 5.06757 21.5259L2.1929 19.7205C2.13383 19.6835 2.09847 19.6196 2.09847 19.5495V2.28046C2.09847 2.16911 2.18902 2.07855 2.30037 2.07855H11.4199C11.9938 2.07855 12.4592 1.61331 12.4592 1.03921C12.4592 0.465105 11.9937 0 11.4197 0H2.30023C1.04276 0 0.0197754 1.02312 0.0197754 2.28046V19.5495C0.0197754 20.339 0.418873 21.0611 1.08741 21.4808L3.96208 23.2861C4.02712 23.3271 4.04833 23.3856 4.05457 23.4276C4.06067 23.4695 4.05748 23.5316 4.00701 23.5896C4.00701 23.5896 2.57688 25.2383 2.53209 25.3018L0.438148 28.2637C0.16441 28.6509 0.0197754 29.1061 0.0197754 29.5801V45.2524C0.0197754 45.9596 0.339414 46.6147 0.897013 47.0498L3.72509 49.2575C3.78194 49.3019 3.81093 49.3738 3.80053 49.4454L3.07971 54.4028C3.07361 54.4447 3.05489 54.4828 3.02563 54.5133L1.32801 56.2839C0.918924 56.7106 0.693721 57.2711 0.693721 57.8622V68.7194C0.693721 69.9769 1.7167 70.9999 2.97418 70.9999H28.8556C29.445 70.9999 30.0044 70.7756 30.4307 70.3686L31.6436 69.2103C31.6983 69.1582 31.7763 69.1411 31.8479 69.1651L36.9101 70.8794C37.1463 70.9594 37.3924 71 37.6416 71H51.9503C53.2078 71 54.2308 69.977 54.2308 68.7195V60.006C54.2304 59.4319 53.7651 58.9666 53.191 58.9666Z" fill="#60A7DB"/>
<path d="M54.666 7.74482C54.8718 7.39468 54.9806 6.99503 54.9806 6.58886V2.28046C54.9806 1.02312 53.9575 0 52.7002 0H16.2198C15.6458 0 15.1804 0.465244 15.1804 1.03935C15.1804 1.61345 15.6458 2.07869 16.2198 2.07869H52.7C52.8114 2.07869 52.9019 2.16924 52.9019 2.2806V6.58899C52.9019 6.62505 52.8924 6.66041 52.8741 6.69147L50.421 10.863C49.9109 11.7301 50.0239 12.8123 50.7021 13.5559L52.8491 15.9094C52.8832 15.9467 52.9021 15.9952 52.9021 16.0457V31.6265C52.9021 31.6376 52.9011 31.6485 52.8992 31.6602L51.8303 37.9775C51.8272 37.996 51.8216 38.0138 51.8132 38.031L50.0004 41.8058C49.5937 42.6528 49.7419 43.6467 50.3784 44.3377L52.0982 46.2057C52.1326 46.243 52.1515 46.2917 52.1515 46.3425V55.195C52.1515 55.7691 52.6167 56.2344 53.1908 56.2344C53.7649 56.2344 54.2301 55.7691 54.2301 55.195V46.3425C54.2301 45.7685 54.016 45.2199 53.6273 44.7978L51.9074 42.9296C51.8512 42.8686 51.8381 42.7808 51.8741 42.7058L53.6868 38.9313C53.7793 38.7387 53.8444 38.5344 53.8799 38.3241L54.9485 32.0077C54.9698 31.882 54.9806 31.7539 54.9806 31.6265V16.0456C54.9806 15.4758 54.7692 14.93 54.3849 14.5085L52.2377 12.1549C52.1777 12.0891 52.1677 11.9933 52.2126 11.9165L54.666 7.74482Z" fill="#60A7DB"/>
<path d="M29.3062 36.426C28.6851 36.9228 28.2362 37.282 27.2461 37.282C26.256 37.282 25.8071 36.9228 25.1859 36.426C24.4555 35.8415 23.5463 35.1143 21.8269 35.1143C21.253 35.1143 20.7876 35.5795 20.7876 36.1536C20.7876 36.7277 21.253 37.1929 21.8269 37.1929C22.8171 37.1929 23.2659 37.5521 23.8872 38.049C24.6176 38.6335 25.5267 39.3607 27.2461 39.3607C28.9654 39.3607 29.8745 38.6335 30.6049 38.049C31.226 37.5521 31.6749 37.1929 32.6651 37.1929C33.6555 37.1929 34.1044 37.5521 34.7259 38.0491C35.4563 38.6335 36.3654 39.3607 38.0848 39.3607C39.8042 39.3607 40.7134 38.6335 41.4439 38.0491C42.0653 37.5521 42.5142 37.1929 43.5046 37.1929C44.0787 37.1929 44.5439 36.7277 44.5439 36.1536C44.5439 35.5795 44.0787 35.1143 43.5046 35.1143C41.7852 35.1143 40.876 35.8415 40.1455 36.4258C39.5241 36.9228 39.0752 37.282 38.0847 37.282C37.0944 37.282 36.6456 36.9228 36.0242 36.4258C35.2937 35.8415 34.3845 35.1143 32.665 35.1143C30.9457 35.1143 30.0366 35.8415 29.3062 36.426Z" fill="#60A7DB"/>
<path d="M32.6651 43.6637C33.6555 43.6637 34.1044 44.0228 34.7259 44.5198C35.4563 45.1042 36.3654 45.8314 38.0848 45.8314C39.8042 45.8314 40.7134 45.1042 41.4439 44.5198C42.0653 44.0228 42.5142 43.6637 43.5045 43.6637C44.0786 43.6637 44.5439 43.1984 44.5439 42.6243C44.5439 42.0502 44.0786 41.585 43.5045 41.585C41.7852 41.585 40.876 42.3122 40.1455 42.8965C39.5241 43.3935 39.0752 43.7527 38.0847 43.7527C37.0944 43.7527 36.6456 43.3935 36.0242 42.8965C35.2936 42.3122 34.3845 41.585 32.665 41.585C30.9457 41.585 30.0366 42.3122 29.3062 42.8967C28.6851 43.3935 28.2362 43.7527 27.2461 43.7527C26.256 43.7527 25.8071 43.3935 25.1859 42.8967C24.4555 42.3122 23.5463 41.585 21.8269 41.585C21.253 41.585 20.7876 42.0502 20.7876 42.6243C20.7876 43.1983 21.253 43.6637 21.8269 43.6637C22.8171 43.6637 23.2659 44.0228 23.8872 44.5197C24.6176 45.1042 25.5267 45.8314 27.2461 45.8314C28.9654 45.8314 29.8745 45.1042 30.6049 44.5197C31.2261 44.0228 31.675 43.6637 32.6651 43.6637Z" fill="#60A7DB"/>
<path d="M26.9932 61.0453C27.5672 61.0453 28.0326 60.58 28.0326 60.0059V58.6202C28.0326 58.0461 27.5672 57.5808 26.9932 57.5808C26.4192 57.5808 25.9539 58.0461 25.9539 58.6202V60.0059C25.954 60.58 26.4192 61.0453 26.9932 61.0453Z" fill="#60A7DB"/>
<path d="M16.9854 50.8855C16.4265 50.7553 15.8676 51.103 15.7375 51.6618C15.6073 52.2207 15.9548 52.7796 16.514 52.9098C17.0209 53.0278 17.5437 53.0877 18.0679 53.0877H19.6068C20.1807 53.0877 20.6461 52.6225 20.6461 52.0484C20.6461 51.4743 20.1807 51.009 19.6068 51.009H18.0679C17.7021 51.0093 17.338 50.9676 16.9854 50.8855Z" fill="#60A7DB"/>
<path d="M11.2456 42.5464C11.2456 43.1205 11.711 43.5858 12.285 43.5858C12.8589 43.5858 13.3243 43.1205 13.3243 42.5464V39.6773C13.3243 39.1032 12.8589 38.6379 12.285 38.6379C11.711 38.6379 11.2456 39.1032 11.2456 39.6773V42.5464Z" fill="#60A7DB"/>
<path d="M25.0027 29.4376C25.5767 29.4376 26.042 28.9723 26.042 28.3982C26.042 27.8241 25.5767 27.3589 25.0027 27.3589H22.1336C21.5596 27.3589 21.0942 27.8241 21.0942 28.3982C21.0942 28.9723 21.5596 29.4376 22.1336 29.4376H25.0027Z" fill="#60A7DB"/>
<path d="M12.2849 36.4132C12.8589 36.4132 13.3243 35.9479 13.3243 35.3738V34.1814C13.3243 33.7193 13.3904 33.263 13.5208 32.825C13.6846 32.2749 13.3713 31.6961 12.8212 31.5323C12.2711 31.369 11.6924 31.6818 11.5285 32.2319C11.3407 32.8625 11.2456 33.5184 11.2456 34.1814V35.3738C11.2456 35.9479 11.7108 36.4132 12.2849 36.4132Z" fill="#60A7DB"/>
<path d="M37.511 17.8715H40.0996C40.1773 17.8717 40.2545 17.8735 40.3315 17.8771C40.348 17.8778 40.3645 17.8782 40.3808 17.8782C40.9325 17.8782 41.3922 17.4443 41.4182 16.8875C41.445 16.3142 41.002 15.8276 40.4287 15.8007C40.3207 15.7957 40.2121 15.7931 40.1011 15.793H37.511C36.9369 15.793 36.4717 16.2582 36.4717 16.8323C36.4717 17.4064 36.9369 17.8715 37.511 17.8715Z" fill="#60A7DB"/>
<path d="M28.2668 28.3982C28.2668 28.9723 28.7321 29.4376 29.3062 29.4376H32.1752C32.7493 29.4376 33.2145 28.9723 33.2145 28.3982C33.2145 27.8241 32.7493 27.3589 32.1752 27.3589H29.3062C28.7321 27.3589 28.2668 27.8243 28.2668 28.3982Z" fill="#60A7DB"/>
<path d="M35.4395 28.3982C35.4395 28.9723 35.9047 29.4376 36.4788 29.4376H39.3478C39.9219 29.4376 40.3871 28.9723 40.3871 28.3982C40.3871 27.8241 39.9219 27.3589 39.3478 27.3589H36.4788C35.9047 27.3589 35.4395 27.8243 35.4395 28.3982Z" fill="#60A7DB"/>
<path d="M42.5828 27.9423C42.7853 28.2292 43.1066 28.3825 43.4329 28.3825C43.6399 28.3825 43.8492 28.3207 44.0311 28.1923C44.9549 27.5403 45.709 26.6618 46.2116 25.6518C46.4673 25.138 46.2582 24.5142 45.7442 24.2584C45.2306 24.0023 44.6064 24.2119 44.3507 24.7258C44.0009 25.4286 43.4758 26.0401 42.8325 26.4941C42.3637 26.825 42.2519 27.4734 42.5828 27.9423Z" fill="#60A7DB"/>
<path d="M12.4256 50.1016C12.6268 50.397 12.9533 50.5561 13.2857 50.5561C13.4871 50.5561 13.6906 50.4977 13.8696 50.3757C14.344 50.0527 14.4669 49.4061 14.1438 48.9315C13.7015 48.2823 13.4264 47.5262 13.3482 46.7452C13.2911 46.1742 12.7824 45.758 12.2104 45.8147C11.6393 45.872 11.2228 46.3814 11.2799 46.9525C11.3928 48.0776 11.7888 49.1664 12.4256 50.1016Z" fill="#60A7DB"/>
<path d="M26.5518 55.3803C27.0226 55.052 27.1381 54.4041 26.8099 53.9333C26.1631 53.0059 25.2888 52.2469 24.2816 51.7381C23.7694 51.4798 23.1443 51.6849 22.8855 52.1974C22.6267 52.7099 22.8324 53.3349 23.3448 53.5937C24.0458 53.9476 24.6545 54.4762 25.1049 55.1221C25.307 55.4118 25.6299 55.567 25.9583 55.567C26.1634 55.5673 26.3707 55.5067 26.5518 55.3803Z" fill="#60A7DB"/>
<path d="M15.1096 30.2511C15.2907 30.2511 15.4743 30.2037 15.6411 30.1041C16.3142 29.7025 17.0855 29.4732 17.8716 29.4414C18.4452 29.4181 18.8913 28.9344 18.868 28.3609C18.8448 27.7873 18.3604 27.3448 17.7875 27.3644C16.6563 27.4103 15.5458 27.7405 14.576 28.3191C14.083 28.6134 13.922 29.2513 14.2161 29.7443C14.4107 30.0703 14.7557 30.2511 15.1096 30.2511Z" fill="#60A7DB"/>
<path d="M45.6556 22.0412C45.7516 22.0412 45.849 22.0277 45.9457 21.9997C46.4969 21.8397 46.8142 21.2632 46.6543 20.712C46.3402 19.6291 45.7536 18.6304 44.9578 17.8238C44.5545 17.4152 43.8967 17.4107 43.488 17.8139C43.0795 18.217 43.0751 18.875 43.4782 19.2837C44.0319 19.8451 44.44 20.5391 44.6581 21.2913C44.7899 21.7457 45.2049 22.0412 45.6556 22.0412Z" fill="#60A7DB"/>
<path d="M33.1797 15.793H31.794C31.2199 15.793 30.7546 16.2582 30.7546 16.8323C30.7546 17.4064 31.2199 17.8717 31.794 17.8717H33.1797C33.7538 17.8717 34.2191 17.4064 34.2191 16.8323C34.2191 16.2582 33.7538 15.793 33.1797 15.793Z" fill="#60A7DB"/>
<path d="M21.9433 57.9205C21.5374 57.5148 20.8794 57.5148 20.4735 57.9205L18.7896 59.6044L17.1057 57.9205C16.6999 57.5148 16.0419 57.5148 15.636 57.9205C15.2301 58.3266 15.2301 58.9844 15.636 59.3905L17.3197 61.0742L15.636 62.758C15.2301 63.1639 15.2301 63.8219 15.636 64.2279C15.8388 64.4308 16.1048 64.5323 16.3708 64.5323C16.6368 64.5323 16.9027 64.4308 17.1056 64.2279L18.7895 62.544L20.4734 64.2279C20.6763 64.4308 20.9422 64.5323 21.2082 64.5323C21.4742 64.5323 21.7402 64.4308 21.943 64.2279C22.3489 63.8219 22.3489 63.164 21.943 62.758L20.2593 61.0742L21.943 59.3905C22.3492 58.9846 22.3492 58.3266 21.9433 57.9205Z" fill="#60A7DB"/>
<path d="M8.26637 18.307C8.51847 18.7436 8.98815 19.0148 9.49223 19.0148H27.4745C28.0342 19.0148 28.5557 18.7137 28.8356 18.229C29.1155 17.7442 29.1155 17.142 28.8357 16.6571L23.4066 7.25363C23.1267 6.76883 22.605 6.46777 22.0454 6.46777C21.4857 6.46777 20.964 6.76883 20.6842 7.25363L17.379 12.9783L15.1782 9.16619C14.9261 8.72965 14.4564 8.45841 13.9523 8.45841C13.4483 8.45841 12.9787 8.72965 12.7266 9.16619L8.26637 16.8916C8.0144 17.328 8.0144 17.8705 8.26637 18.307ZM22.0455 9.05317L26.5967 16.9361H17.4941L22.0455 9.05317ZM13.9526 11.2002L16.1791 15.0568C16.1791 15.0568 15.1649 16.8404 15.1323 16.9361H10.6408L13.9526 11.2002Z" fill="#60A7DB"/>
</svg>
