<svg width="79" height="79" viewBox="0 0 79 79" fill="none" xmlns="http://www.w3.org/2000/svg">
<path d="M76.5312 38.2657H65.9329L77.4039 26.7946C77.8866 26.312 77.8866 25.5319 77.4039 25.0492L53.9508 1.59611C53.4682 1.11347 52.6881 1.11347 52.2054 1.59611L15.5358 38.2657H2.46875C1.78614 38.2657 1.23438 38.8187 1.23438 39.5001V71.5938C1.23438 72.2752 1.78614 72.8282 2.46875 72.8282H20.4733L25.0492 77.404C25.2899 77.6447 25.6059 77.7657 25.9219 77.7657C26.2379 77.7657 26.5539 77.6447 26.7946 77.404L31.3716 72.8282H76.5312C77.2139 72.8282 77.7656 72.2752 77.7656 71.5938V39.5001C77.7656 38.8187 77.2139 38.2657 76.5312 38.2657ZM53.0781 4.21422L74.7858 25.9219L62.4421 38.2657H53.0176C52.735 35.1057 51.3722 32.1703 49.101 29.8991C43.808 24.6061 35.1933 24.6049 29.8978 29.8991C27.6278 32.1703 26.265 35.1057 25.9811 38.2657H19.0254L53.0781 4.21422ZM33.6083 38.2657C33.4404 37.4633 33.6651 36.6055 34.2625 36.0093L36.5202 38.2657H33.6083ZM46.9248 38.2657C46.789 38.0867 46.6433 37.9139 46.4829 37.7547C44.556 35.8303 41.4256 35.829 39.5 37.7547L36.0079 34.2638C36.9411 33.3319 38.5656 33.3319 39.4988 34.2638L41.2442 32.5184C40.311 31.5865 39.0717 31.073 37.7534 31.073C36.435 31.073 35.1945 31.5865 34.2625 32.5184L34.2613 32.5197L33.3886 31.647L31.6432 33.3924L32.5159 34.2651C31.4309 35.3501 30.9507 36.8202 31.105 38.2682H28.4622C28.7375 35.7685 29.8385 33.4516 31.642 31.647C35.9746 27.3155 43.0217 27.3168 47.3543 31.647C49.1577 33.4516 50.26 35.7685 50.5341 38.2682H46.9248V38.2657ZM25.9219 74.7859L23.9642 72.8282H27.8796L25.9219 74.7859ZM75.2969 70.3594H3.70312V40.7344H75.2969V70.3594Z" fill="#60A7DB"/>
<path d="M35.7969 59.25H33.3281C33.3281 61.973 35.5426 64.1875 38.2656 64.1875V65.4219H40.7344V64.1875C43.4574 64.1875 45.6719 61.973 45.6719 59.25C45.6719 56.527 43.4574 54.3125 40.7344 54.3125V49.375C42.0959 49.375 43.2031 50.4822 43.2031 51.8438H45.6719C45.6719 49.1207 43.4574 46.9062 40.7344 46.9062V45.6719H38.2656V46.9062C35.5426 46.9062 33.3281 49.1207 33.3281 51.8438C33.3281 54.5668 35.5426 56.7812 38.2656 56.7812V61.7188C36.9041 61.7188 35.7969 60.6115 35.7969 59.25ZM35.7969 51.8438C35.7969 50.4822 36.9041 49.375 38.2656 49.375V54.3125C36.9041 54.3125 35.7969 53.2053 35.7969 51.8438ZM40.7344 56.7812C42.0959 56.7812 43.2031 57.8885 43.2031 59.25C43.2031 60.6115 42.0959 61.7188 40.7344 61.7188V56.7812Z" fill="#60A7DB"/>
<path d="M39.5 69.125C46.9865 69.125 53.0781 63.0334 53.0781 55.5469C53.0781 48.0604 46.9865 41.9688 39.5 41.9688C32.0135 41.9688 25.9219 48.0604 25.9219 55.5469C25.9219 63.0334 32.0135 69.125 39.5 69.125ZM39.5 44.4375C45.6262 44.4375 50.6094 49.4219 50.6094 55.5469C50.6094 61.6718 45.6262 66.6562 39.5 66.6562C33.3738 66.6562 28.3906 61.6718 28.3906 55.5469C28.3906 49.4219 33.3738 44.4375 39.5 44.4375Z" fill="#60A7DB"/>
<path d="M72.8281 66.6562V44.4375C72.8281 43.7561 72.2764 43.2031 71.5938 43.2031H56.7812V45.6719H70.3594V65.4219H56.7812V67.8906H71.5938C72.2764 67.8906 72.8281 67.3376 72.8281 66.6562Z" fill="#60A7DB"/>
<path d="M7.40625 67.8906H22.2188V65.4219H8.64062V45.6719H22.2188V43.2031H7.40625C6.72364 43.2031 6.17188 43.7561 6.17188 44.4375V66.6562C6.17188 67.3376 6.72364 67.8906 7.40625 67.8906Z" fill="#60A7DB"/>
<path d="M56.7812 60.4844H59.25V62.9531H56.7812V60.4844Z" fill="#60A7DB"/>
<path d="M61.7188 60.4844H64.1875V62.9531H61.7188V60.4844Z" fill="#60A7DB"/>
<path d="M56.7812 48.1406H59.25V50.6094H56.7812V48.1406Z" fill="#60A7DB"/>
<path d="M61.7188 48.1406H64.1875V50.6094H61.7188V48.1406Z" fill="#60A7DB"/>
<path d="M53.414 11.6205L67.3785 25.5863L57.7775 35.1872L59.5229 36.9326L69.9966 26.459C70.4792 25.9763 70.4792 25.1962 69.9966 24.7136L54.2867 9.00244C53.8238 8.53955 53.0042 8.53955 52.5413 9.00244L42.0676 19.4761L43.813 21.2215L53.414 11.6205Z" fill="#60A7DB"/>
<path d="M54.2793 31.6985L56.025 29.9528L57.7706 31.6985L56.025 33.4442L54.2793 31.6985Z" fill="#60A7DB"/>
<path d="M57.7686 28.207L59.5142 26.4614L61.2599 28.207L59.5142 29.9527L57.7686 28.207Z" fill="#60A7DB"/>
<path d="M45.552 22.9712L47.2977 21.2255L49.0433 22.9712L47.2977 24.7169L45.552 22.9712Z" fill="#60A7DB"/>
<path d="M49.042 19.4797L50.7877 17.7341L52.5333 19.4797L50.7877 21.2254L49.042 19.4797Z" fill="#60A7DB"/>
<path d="M14.8125 48.1406H17.2812V50.6094H14.8125V48.1406Z" fill="#60A7DB"/>
<path d="M19.75 48.1406H22.2188V50.6094H19.75V48.1406Z" fill="#60A7DB"/>
<path d="M14.8125 60.4844H17.2812V62.9531H14.8125V60.4844Z" fill="#60A7DB"/>
<path d="M19.75 60.4844H22.2188V62.9531H19.75V60.4844Z" fill="#60A7DB"/>
</svg>
