<svg width="48" height="48" viewBox="0 0 48 48" fill="none" xmlns="http://www.w3.org/2000/svg">
<g clip-path="url(#clip0)">
<path d="M42.7772 9.05558C38.7834 4.03996 33.0834 0.880581 26.7178 0.158706C20.6615 -0.535044 14.6897 1.05871 9.80528 4.64933L7.68653 1.99621C7.48028 1.73371 7.15216 1.60246 6.82403 1.64933C6.49591 1.69621 6.21466 1.91183 6.08341 2.21183L0.327159 15.8056C0.195909 16.1243 0.242784 16.49 0.458409 16.7525C0.674034 17.0243 1.02091 17.1556 1.35841 17.09L15.899 14.5306C16.2272 14.4743 16.499 14.2493 16.6115 13.94C16.724 13.6306 16.6772 13.2837 16.4709 13.0212L14.3897 10.4056C19.1053 7.06808 25.2365 6.41183 30.599 8.71808C31.0772 8.92433 31.6303 8.69933 31.8272 8.23058C32.0334 7.75246 31.8084 7.19933 31.3397 7.00246C25.049 4.29308 17.8209 5.24933 12.4678 9.50558C12.2709 9.66496 12.149 9.88996 12.1209 10.1337C12.0928 10.3775 12.1678 10.6306 12.3178 10.8275L14.024 12.965L2.73653 14.9525L7.20841 4.39621L8.90528 6.54308C9.22403 6.94621 9.81466 7.01183 10.2178 6.69308C19.7615 -0.900669 33.7115 0.683705 41.3053 10.2275C44.8584 14.69 46.5272 20.2306 46.0303 25.8931L42.3272 26.5493C43.0303 21.5337 41.6522 16.4712 38.474 12.4681C38.1553 12.065 37.5647 11.9993 37.1615 12.3181C36.7584 12.6368 36.6928 13.2275 37.0115 13.6306C40.124 17.5493 41.3053 22.6025 40.2553 27.4962C40.1897 27.8056 40.2834 28.115 40.499 28.34C40.6772 28.5275 40.9209 28.6306 41.174 28.6306C41.2303 28.6306 47.0522 27.6087 47.0522 27.6087C47.4553 27.5337 47.774 27.2056 47.8209 26.7931C48.5803 20.3993 46.7897 14.0993 42.7772 9.05558Z" fill="#405764"/>
<path d="M23.0616 40.6023C18.4866 40.3398 14.0428 38.2117 10.9772 34.3585C7.8647 30.4398 6.68345 25.3867 7.73345 20.4929C7.79907 20.1835 7.70532 19.8742 7.4897 19.6492C7.27407 19.4242 6.95532 19.321 6.65532 19.3773L0.936574 20.3804C0.524074 20.4554 0.214699 20.7835 0.167824 21.196C-0.582176 27.5992 1.20845 33.9085 5.22095 38.9429C9.2147 43.9585 14.9147 47.1179 21.2897 47.8492C22.2178 47.9523 23.1366 48.0085 24.0553 48.0085C29.1459 48.0085 34.0678 46.396 38.2022 43.3585L40.3116 46.0117C40.5178 46.2742 40.8459 46.4054 41.1741 46.3585C41.5022 46.3117 41.7834 46.096 41.9147 45.796L47.6709 32.2023C47.8022 31.8835 47.7553 31.5179 47.5397 31.2554C47.3241 30.9835 46.9866 30.8523 46.6397 30.9179L32.0991 33.4773C31.7709 33.5335 31.4991 33.7585 31.3866 34.0679C31.2647 34.3773 31.3209 34.7242 31.5272 34.9867L33.6084 37.6117C30.9834 39.4773 27.9647 40.4617 24.9366 40.6304C24.9366 40.6023 24.0366 40.6585 23.0616 40.6023ZM40.7897 43.6023L39.0928 41.4648C38.7741 41.0617 38.1834 40.996 37.7803 41.3148C33.7209 44.5492 28.8553 46.1148 24.0272 46.1148C17.5116 46.1148 11.0522 43.2554 6.69282 37.7804C3.1397 33.3179 1.47095 27.7773 1.96782 22.1054L5.67095 21.4585C4.96782 26.4742 6.33657 31.5367 9.52407 35.5398C13.1709 40.1242 18.5803 42.5148 24.0366 42.5148C28.0772 42.5148 32.146 41.2023 35.5491 38.4929C35.9522 38.1742 36.0178 37.5835 35.6991 37.1804L33.9928 35.0429L45.2803 33.0554L40.7897 43.6023Z" fill="#405764"/>
<path d="M34.6587 10.9583C34.9025 10.9583 35.1369 10.8645 35.3244 10.6864C35.69 10.3208 35.69 9.72078 35.3244 9.35515C34.9587 8.98953 34.3681 8.98953 34.0025 9.35515C33.6369 9.72078 33.6369 10.3114 34.0025 10.677C34.1806 10.8645 34.4244 10.9583 34.6587 10.9583Z" fill="#405764"/>
<path d="M31.7158 17.1189C29.9908 14.6252 27.2627 13.1908 24.2252 13.1908C21.1877 13.1908 18.4595 14.6252 16.7345 17.1189C15.0189 19.6033 14.6252 22.7439 15.6752 25.5189C15.9564 26.2783 16.4064 27.0189 17.0064 27.7127L23.5314 35.3814C23.7095 35.5877 23.9627 35.7002 24.2345 35.7002C24.5064 35.7002 24.7595 35.5783 24.9377 35.3814L31.4627 27.7127C32.0627 27.0189 32.5127 26.2783 32.7939 25.5189C33.8252 22.7439 33.4314 19.5939 31.7158 17.1189ZM31.0595 24.8814C30.8533 25.4345 30.5158 25.9877 30.0658 26.5127L24.2252 33.3658L18.3939 26.5127C17.9345 25.9783 17.597 25.4345 17.3908 24.872C16.5564 22.6502 16.8752 20.147 18.2439 18.1595C19.622 16.172 21.797 15.0283 24.2252 15.0283C26.6533 15.0283 28.8283 16.172 30.2064 18.1595C31.5845 20.147 31.9033 22.6595 31.0595 24.8814Z" fill="#405764"/>
<path d="M24.2248 17.9442C21.8248 17.9442 19.8748 19.8942 19.8748 22.2942C19.8748 24.6942 21.8248 26.6442 24.2248 26.6442C26.6248 26.6442 28.5748 24.6942 28.5748 22.2942C28.5748 19.8942 26.6248 17.9442 24.2248 17.9442ZM24.2248 25.0973C22.6779 25.0973 21.431 23.8411 21.431 22.3036C21.431 20.7567 22.6873 19.5098 24.2248 19.5098C25.7716 19.5098 27.0185 20.7661 27.0185 22.3036C27.0185 23.8411 25.7716 25.0973 24.2248 25.0973Z" fill="#405764"/>
</g>
<defs>
<clipPath id="clip0">
<rect width="48" height="48" fill="white"/>
</clipPath>
</defs>
</svg>
