<svg width="62" height="62" viewBox="0 0 62 62" fill="none" xmlns="http://www.w3.org/2000/svg">
<path d="M32.555 0C16.5454 0 3.49247 13.0524 3.49247 29.0625C3.49247 29.9802 3.49247 30.7963 3.59454 31.7139L5.63402 31.5098C5.53194 30.6942 5.53194 29.8781 5.53194 29.0625C5.53194 14.1742 17.6667 2.03947 32.555 2.03947C47.4432 2.03947 59.578 14.1742 59.578 29.0625C59.578 43.6445 48.0552 55.5757 33.5747 56.0855L35.8183 53.8419L34.3908 52.4144L29.5978 57.2073L34.3908 61.9998L35.8183 60.5723L33.3711 58.125C49.4827 57.6151 62.1273 44.2565 61.6175 28.2469C61.1076 12.5426 48.2588 0 32.555 0Z" fill="#405764"/>
<path d="M51.4201 12.2368H14.7096V30.5921H51.4201V12.2368ZM49.3806 28.5526H16.7491V14.2763H49.3806V28.5526Z" fill="#405764"/>
<path d="M33.0649 25.4933C35.3085 25.4933 37.1438 23.658 37.1438 21.4144C37.1438 19.1708 35.3085 17.3354 33.0649 17.3354C30.8218 17.3354 28.9859 19.1708 28.9859 21.4144C28.9859 23.658 30.8218 25.4933 33.0649 25.4933ZM33.0649 19.3749C34.1867 19.3749 35.1044 20.2926 35.1044 21.4144C35.1044 22.5362 34.1867 23.4539 33.0649 23.4539C31.9431 23.4539 31.0254 22.5362 31.0254 21.4144C31.0254 20.2926 31.9431 19.3749 33.0649 19.3749Z" fill="#405764"/>
<path d="M20.828 18.3551H22.8675V16.3157H18.7885V20.3946H20.828V18.3551Z" fill="#405764"/>
<path d="M22.8675 24.4738H20.828V22.4343H18.7885V26.5133H22.8675V24.4738Z" fill="#405764"/>
<path d="M47.3412 22.4343H45.3017V24.4738H43.2622V26.5133H47.3412V22.4343Z" fill="#405764"/>
<path d="M45.3017 20.3946H47.3412V16.3157H43.2622V18.3551H45.3017V20.3946Z" fill="#405764"/>
<path d="M23.8872 20.3948H26.9464V22.4342H23.8872V20.3948Z" fill="#405764"/>
<path d="M39.1833 20.3948H42.2425V22.4342H39.1833V20.3948Z" fill="#405764"/>
<path d="M6.55171 43.8486H8.59118V46.9078H6.55171V43.8486Z" fill="#405764"/>
<path d="M51.4201 41.7072C51.4201 39.6678 49.6869 37.9345 47.6474 37.9345C47.3412 37.9345 46.9334 37.9345 46.6277 38.0361L34.2888 41.6052C34.1867 41.6052 33.9825 41.7072 33.881 41.6052L31.0254 41.0953C32.9628 39.974 33.6768 37.5262 32.6571 35.5888C31.9431 34.2634 30.6176 33.4473 29.088 33.4473H16.2392C15.7293 33.4473 15.2195 33.5493 14.7096 33.8556L12.6701 35.181V33.6514H0.433296V50.9869H12.6701V48.4376L22.7654 52.6186C23.3774 52.9243 24.1935 52.9243 24.8049 52.7207L48.6671 45.2763C50.2983 44.8685 51.4201 43.441 51.4201 41.7072ZM10.6307 48.9475H2.47277V35.6909H6.55172V41.8093H8.59119V35.6909H10.6307V48.9475ZM24.295 50.7828C24.0914 50.8849 23.7852 50.8849 23.5815 50.7828L12.6701 46.194V37.5262L15.7293 35.793C15.8314 35.6909 16.0356 35.6909 16.2392 35.6909H28.9859C30.1077 35.6909 31.0254 36.6085 31.0254 37.7304C31.0254 38.8522 30.1077 39.7698 28.9859 39.7698H21.8478V40.7896L21.6441 41.8093L33.3711 43.7467C33.7789 43.8488 34.2888 43.7467 34.6966 43.6446L47.0355 40.0756C47.9531 39.7698 48.8708 40.3818 49.177 41.2994C49.4827 42.2171 48.9729 43.1348 48.0552 43.441L24.295 50.7828Z" fill="#405764"/>
</svg>
