<svg width="41" height="39" viewBox="0 0 41 39" fill="none" xmlns="http://www.w3.org/2000/svg">
<path d="M31.6147 38.1922C31.3609 38.1922 31.1131 38.115 30.9042 37.9708L20.0203 30.4647L9.13648 37.9708C8.9253 38.1163 8.67451 38.1934 8.41808 38.1916C8.16164 38.1898 7.91194 38.1093 7.7028 37.9609C7.49365 37.8125 7.33516 37.6034 7.24879 37.3619C7.16242 37.1205 7.15234 36.8583 7.21992 36.6109L10.6339 24.0895L7.97303 21.9353C7.73719 21.7203 7.5924 21.4234 7.56827 21.1052C7.54414 20.787 7.64251 20.4717 7.84325 20.2236C8.04398 19.9756 8.3319 19.8136 8.64812 19.7709C8.96433 19.7281 9.28492 19.8078 9.54431 19.9937L12.8407 22.6633C13.0297 22.8161 13.1701 23.0207 13.2448 23.2519C13.3194 23.4832 13.3251 23.7312 13.2611 23.9657L10.5276 33.9738L19.3072 27.9189C19.5159 27.7752 19.7633 27.6983 20.0166 27.6983C20.2699 27.6983 20.5172 27.7752 20.7259 27.9189L29.5055 33.9738L26.7721 23.9657C26.7079 23.7313 26.7134 23.4834 26.7878 23.2521C26.8622 23.0209 27.0024 22.8163 27.1912 22.6633L35.4153 16.0004L25.2821 15.5951C25.0418 15.5856 24.8093 15.507 24.6125 15.3688C24.4157 15.2306 24.2629 15.0385 24.1724 14.8157L20.0166 4.57614L15.8669 14.812C15.7765 15.0348 15.6237 15.2268 15.4269 15.365C15.2301 15.5033 14.9976 15.5818 14.7573 15.5913L4.61656 15.9967L5.79251 16.9487C5.92024 17.0522 6.02634 17.1798 6.10474 17.3243C6.18314 17.4689 6.23231 17.6274 6.24945 17.7909C6.26658 17.9544 6.25135 18.1197 6.2046 18.2773C6.15786 18.4349 6.08054 18.5818 5.97704 18.7095C5.87354 18.8372 5.74589 18.9433 5.60139 19.0217C5.45688 19.1001 5.29835 19.1493 5.13485 19.1664C4.97134 19.1836 4.80606 19.1683 4.64845 19.1216C4.49083 19.0749 4.34396 18.9975 4.21623 18.894L0.46318 15.8528C0.265648 15.6927 0.121608 15.4761 0.0502562 15.2321C-0.0210955 14.988 -0.0163721 14.728 0.0637975 14.4866C0.143967 14.2453 0.295776 14.0341 0.498993 13.8813C0.702211 13.7284 0.947187 13.6411 1.20128 13.631L13.8503 13.1306L18.8544 0.781809C18.9478 0.550816 19.1081 0.352997 19.3148 0.213706C19.5214 0.0744154 19.7649 0 20.0141 0C20.2633 0 20.5068 0.0744154 20.7134 0.213706C20.92 0.352997 21.0803 0.550816 21.1738 0.781809L26.1778 13.1306L38.8269 13.631C39.0809 13.6411 39.3259 13.7284 39.5291 13.8813C39.7324 14.0341 39.8842 14.2453 39.9643 14.4866C40.0445 14.728 40.0492 14.988 39.9779 15.2321C39.9065 15.4761 39.7625 15.6927 39.565 15.8528L29.3992 24.0895L32.8182 36.6109C32.869 36.7965 32.8763 36.9913 32.8396 37.1802C32.8028 37.369 32.723 37.5469 32.6063 37.6998C32.4897 37.8528 32.3393 37.9768 32.1668 38.0622C31.9944 38.1476 31.8046 38.1921 31.6122 38.1922H31.6147Z" fill="#EA3844"/>
</svg>
