<svg width="65" height="65" viewBox="0 0 65 65" fill="none" xmlns="http://www.w3.org/2000/svg">
<path d="M23.634 45C23.634 43.71 23.7343 42.549 23.935 41.517C24.1357 40.4563 24.4797 39.4817 24.967 38.593C25.483 37.7043 26.171 36.873 27.031 36.099C27.9197 35.325 29.0377 34.5653 30.385 33.82C31.5603 33.1893 32.5923 32.6447 33.481 32.186C34.3983 31.6987 35.158 31.2543 35.76 30.853C36.362 30.4517 36.8207 30.0503 37.136 29.649C37.4513 29.219 37.609 28.7317 37.609 28.187C37.609 27.327 37.265 26.596 36.577 25.994C35.889 25.3633 34.9 25.048 33.61 25.048C32.922 25.048 32.2913 25.1483 31.718 25.349C31.1447 25.521 30.6 25.7647 30.084 26.08C29.5967 26.3953 29.138 26.7537 28.708 27.155C28.3067 27.5277 27.934 27.929 27.59 28.359L23.892 24.102C24.2647 23.7007 24.795 23.2707 25.483 22.812C26.171 22.3247 26.9737 21.8803 27.891 21.479C28.837 21.049 29.869 20.705 30.987 20.447C32.1337 20.1603 33.352 20.017 34.642 20.017C36.104 20.017 37.4083 20.2033 38.555 20.576C39.7017 20.92 40.662 21.4217 41.436 22.081C42.2387 22.7117 42.8407 23.4857 43.242 24.403C43.672 25.2917 43.887 26.2663 43.887 27.327C43.887 28.3303 43.7007 29.219 43.328 29.993C42.9553 30.767 42.4823 31.455 41.909 32.057C41.3357 32.659 40.705 33.1893 40.017 33.648C39.3577 34.078 38.7127 34.465 38.082 34.809C37.566 35.0957 36.9783 35.4253 36.319 35.798C35.6597 36.1707 35.0003 36.5863 34.341 37.045C33.7103 37.475 33.1227 37.9337 32.578 38.421C32.0333 38.8797 31.6177 39.3383 31.331 39.797H44.36V45H23.634Z" fill="#405764"/>
<circle cx="32.5" cy="32.5" r="31.4" stroke="#405764" stroke-width="1.8" stroke-dasharray="10 6"/>
</svg>
