<svg width="65" height="65" viewBox="0 0 65 65" fill="none" xmlns="http://www.w3.org/2000/svg">
<path d="M42.21 39.797V45H24.752V39.797H30.858V26.768C30.6 27.112 30.1843 27.4703 29.611 27.843C29.0663 28.187 28.4643 28.5167 27.805 28.832C27.1457 29.1473 26.4577 29.4053 25.741 29.606C25.053 29.8067 24.4367 29.907 23.892 29.907V24.532C24.408 24.532 25.0387 24.3743 25.784 24.059C26.5293 23.715 27.2603 23.3137 27.977 22.855C28.6937 22.3963 29.31 21.952 29.826 21.522C30.3707 21.0633 30.7147 20.705 30.858 20.447H36.749V39.797H42.21Z" fill="#405764"/>
<circle cx="32.5" cy="32.5" r="31.4" stroke="#405764" stroke-width="1.8" stroke-dasharray="10 6"/>
</svg>
