<svg width="65" height="65" viewBox="0 0 65 65" fill="none" xmlns="http://www.w3.org/2000/svg">
<path d="M38.383 32.852C40.1603 33.1673 41.5937 34.0273 42.683 35.432C43.801 36.808 44.36 38.4993 44.36 40.506C44.36 41.8533 44.0877 43.0717 43.543 44.161C43.027 45.2503 42.2817 46.1677 41.307 46.913C40.361 47.687 39.2 48.2747 37.824 48.676C36.448 49.106 34.9 49.321 33.18 49.321C31.0013 49.321 29.0663 48.9627 27.375 48.246C25.7123 47.558 24.322 46.5403 23.204 45.193L26.472 41.108C27.2173 42.054 28.106 42.785 29.138 43.301C30.17 43.817 31.46 44.075 33.008 44.075C34.7567 44.075 36.0897 43.731 37.007 43.043C37.9243 42.355 38.383 41.2943 38.383 39.861C38.383 38.3703 37.8527 37.2237 36.792 36.421C35.7313 35.6183 34.126 35.217 31.976 35.217H30.772V30.917H32.105C33.8823 30.917 35.2583 30.53 36.233 29.756C37.2077 28.9533 37.695 27.9357 37.695 26.703C37.695 25.5277 37.2937 24.6533 36.491 24.08C35.6883 23.5067 34.642 23.22 33.352 23.22C32.0333 23.22 30.8437 23.521 29.783 24.123C28.751 24.725 27.9053 25.5707 27.246 26.66L23.634 22.618C24.064 21.9587 24.6373 21.371 25.354 20.855C26.0707 20.3103 26.8733 19.8517 27.762 19.479C28.6793 19.0777 29.6683 18.7767 30.729 18.576C31.7897 18.3467 32.879 18.232 33.997 18.232C35.459 18.232 36.792 18.4183 37.996 18.791C39.2 19.1637 40.232 19.6797 41.092 20.339C41.9807 20.9983 42.6543 21.801 43.113 22.747C43.6003 23.6643 43.844 24.6963 43.844 25.843C43.844 26.703 43.715 27.52 43.457 28.294C43.199 29.068 42.8263 29.7703 42.339 30.401C41.8517 31.0317 41.264 31.562 40.576 31.992C39.9167 32.422 39.1857 32.7087 38.383 32.852Z" fill="#405764"/>
<circle cx="32.5" cy="32.5" r="31.4" stroke="#405764" stroke-width="1.8" stroke-dasharray="10 6"/>
</svg>
