<svg width="68" height="68" viewBox="0 0 68 68" fill="none" xmlns="http://www.w3.org/2000/svg">
<path d="M34.3736 42.541C33.6222 42.5395 32.8872 42.7611 32.2618 43.1777C31.6364 43.5942 31.1487 44.187 30.8605 44.8809C30.5722 45.5749 30.4964 46.3387 30.6427 47.0758C30.7889 47.8129 31.1506 48.4899 31.6819 49.0213C32.2133 49.5526 32.8903 49.9143 33.6274 50.0605C34.3645 50.2068 35.1283 50.131 35.8223 49.8427C36.5162 49.5545 37.109 49.0668 37.5255 48.4414C37.9421 47.816 38.1637 47.081 38.1622 46.3296C38.1622 45.3248 37.763 44.3612 37.0525 43.6507C36.342 42.9402 35.3784 42.541 34.3736 42.541ZM34.3736 47.5103C34.1398 47.5117 33.9108 47.4437 33.7156 47.3149C33.5205 47.1861 33.368 47.0022 33.2775 46.7866C33.187 46.571 33.1626 46.3334 33.2073 46.1039C33.252 45.8744 33.3638 45.6633 33.5286 45.4974C33.6935 45.3316 33.9038 45.2184 34.133 45.1722C34.3623 45.126 34.6 45.149 34.8162 45.2381C35.0324 45.3272 35.2172 45.4786 35.3473 45.6729C35.4774 45.8672 35.5468 46.0958 35.5468 46.3296C35.5468 46.6414 35.4234 46.9406 35.2036 47.1618C34.9838 47.383 34.6854 47.5083 34.3736 47.5103Z" fill="#EA3844"/>
<path d="M39.3728 22.6492H29.367C29.1659 22.649 28.9674 22.6952 28.7871 22.7843C28.6067 22.8733 28.4493 23.0027 28.3271 23.1625C28.2049 23.3223 28.1212 23.5081 28.0826 23.7055C28.0439 23.9029 28.0513 24.1065 28.1042 24.3006L32.3486 39.9406C32.4233 40.2215 32.5895 40.4695 32.8209 40.6454C33.0523 40.8213 33.3357 40.9152 33.6264 40.912H35.1209C35.409 40.9118 35.689 40.8165 35.9173 40.6408C36.1457 40.4652 36.3097 40.219 36.3837 39.9406L38.9991 30.2936C39.0567 30.1246 39.079 29.9456 39.0648 29.7676C39.0506 29.5897 39 29.4165 38.9163 29.2588C38.8326 29.1011 38.7175 28.9622 38.5781 28.8507C38.4387 28.7392 38.2779 28.6574 38.1057 28.6104C37.9334 28.5634 37.7534 28.5521 37.5767 28.5773C37.3999 28.6025 37.2302 28.6637 37.078 28.757C36.9258 28.8502 36.7943 28.9737 36.6916 29.1197C36.5889 29.2658 36.5172 29.4313 36.4809 29.6061L34.3736 37.4074L31.0708 25.2646H39.3728C39.7196 25.2646 40.0522 25.1268 40.2974 24.8815C40.5427 24.6363 40.6804 24.3037 40.6804 23.9569C40.6804 23.61 40.5427 23.2774 40.2974 23.0322C40.0522 22.7869 39.7196 22.6492 39.3728 22.6492Z" fill="#EA3844"/>
<path d="M66.782 53.8919C66.7595 53.8022 37.9604 2.69757 37.9604 2.69757C37.5638 2.02797 37.0029 1.47065 36.3308 1.07837C35.6587 0.68608 34.8976 0.4718 34.1195 0.455811C33.362 0.497578 32.6246 0.715141 31.9657 1.09127C31.3069 1.4674 30.7446 1.99177 30.3235 2.62284C30.3235 2.62284 1.49449 53.8022 1.49449 53.8769C0.747233 55.8796 1.218 57.2022 1.74108 57.9494C2.17734 58.5156 2.74663 58.9653 3.39841 59.2586C4.05018 59.5519 4.76429 59.6797 5.47734 59.6308H19.182V66.1692C19.1789 66.4163 19.248 66.6588 19.3807 66.8672C19.5135 67.0756 19.7041 67.2407 19.9292 67.3424C20.1509 67.4389 20.3935 67.4772 20.6341 67.4537C20.8748 67.4301 21.1054 67.3455 21.3042 67.2079L31.0932 59.6308H62.7692C63.4731 59.6834 64.1785 59.5515 64.8158 59.2482C65.4532 58.9448 66.0003 58.4804 66.4033 57.9009C66.8062 57.3213 67.051 56.6467 67.1135 55.9436C67.176 55.2406 67.054 54.5334 66.7595 53.8919H66.782ZM64.2637 56.4176C64.0788 56.6272 63.8472 56.7906 63.5876 56.8944C63.3281 56.9982 63.0477 57.0397 62.7692 57.0154H30.6373C30.3476 57.017 30.0666 57.1142 29.8378 57.2919L21.7973 63.5165V59.6308H22.5072C22.8541 59.6308 23.1867 59.493 23.4319 59.2477C23.6772 59.0025 23.8149 58.6699 23.8149 58.3231C23.8149 57.9762 23.6772 57.6436 23.4319 57.3984C23.1867 57.1531 22.8541 57.0154 22.5072 57.0154H5.44745C5.15715 57.0466 4.86355 57.0124 4.58815 56.9154C4.31275 56.8185 4.06253 56.6611 3.8558 56.4549C3.74329 56.2073 3.68508 55.9385 3.68508 55.6666C3.68508 55.3946 3.74329 55.1258 3.8558 54.8782L32.498 4.06504C32.6781 3.79838 32.9134 3.57361 33.188 3.40599C33.4627 3.23837 33.7702 3.13183 34.0896 3.09361C34.4053 3.11151 34.7122 3.20418 34.9851 3.36398C35.2579 3.52379 35.4889 3.74615 35.6589 4.01273L64.3534 54.8708C64.4583 55.1181 64.5048 55.3864 64.4892 55.6546C64.4737 55.9229 64.3965 56.184 64.2637 56.4176Z" fill="#EA3844"/>
</svg>
