<svg width="48" height="48" viewBox="0 0 48 48" fill="none" xmlns="http://www.w3.org/2000/svg">
<g clip-path="url(#clip0)">
<path d="M36.3469 43.5C36.0844 43.05 35.5125 42.9 35.0625 43.1625L35.025 43.1812C34.575 43.4437 34.425 44.0156 34.6875 44.4656C34.8656 44.7656 35.175 44.9344 35.5031 44.9344C35.6625 44.9344 35.8219 44.8969 35.9719 44.8031L36.0094 44.7844C36.45 44.5219 36.6 43.95 36.3469 43.5Z" fill="#405764"/>
<path d="M44.7845 12.0091C41.5782 6.4591 36.4032 2.4841 30.2157 0.824727C24.0282 -0.834648 17.5595 0.0184774 12.0095 3.22473C6.45947 6.43098 2.48447 11.606 0.825094 17.7935C-0.834281 23.981 0.0188437 30.4497 3.22509 35.9997C6.10322 40.9779 10.6688 44.7654 16.0876 46.6497C18.6563 47.5497 21.3376 47.9904 24.0188 47.9904C26.9345 47.9904 29.8407 47.4654 32.5876 46.406C33.0751 46.2185 33.3095 45.6747 33.122 45.1966C32.9345 44.7185 32.3907 44.4747 31.9126 44.6622C24.6001 47.4747 16.6782 46.1997 10.7626 41.756L11.6063 37.3685L12.0095 37.2372C13.5376 36.7404 14.3813 35.0904 13.8845 33.5622L13.5845 32.6529C13.5188 32.4372 13.5188 32.2216 13.5845 32.006C13.847 31.2091 13.7532 30.3466 13.3313 29.6247C12.9095 28.9029 12.197 28.3966 11.372 28.2372L9.25322 27.8247L5.17509 24.7216C4.93134 24.5341 4.61259 24.4779 4.32197 24.5716L1.93134 25.3497C1.88447 24.4966 1.88447 23.6435 1.93134 22.7904C2.02509 22.8747 2.09072 22.9404 2.12822 22.9779C2.17509 23.0529 2.23134 23.1279 2.29697 23.1935C2.49384 23.3716 2.67197 23.456 3.03759 23.456C3.37509 23.456 3.88134 23.3904 4.71572 23.2685C5.50322 23.156 6.29072 23.0154 6.30009 23.0154C6.61884 22.9591 6.88134 22.7529 7.00322 22.4622C7.12509 22.1716 7.09697 21.8341 6.91884 21.5622L5.76572 19.8747L7.41572 18.6935C7.52822 18.6185 7.61259 18.5154 7.68759 18.3935L10.2376 13.9404L11.2688 12.8341C12.3188 11.7091 12.6188 10.0591 12.0376 8.6341C11.6907 7.79035 11.0907 7.0966 10.3313 6.61848C11.147 5.9716 12.0282 5.38098 12.9563 4.8466C16.3595 2.87785 20.0813 1.93098 23.7563 1.89348L22.0782 3.99348L15.872 6.16848C15.6188 6.25285 15.422 6.44973 15.3188 6.69348L13.5845 10.8935C13.4626 11.1935 13.5001 11.531 13.6876 11.7935L16.2188 15.3372C15.8532 15.6654 15.5063 16.1529 15.0845 16.7529C14.897 17.0154 14.7282 17.2591 14.6063 17.3997C14.5032 17.5216 14.4001 17.6435 14.297 17.756C13.7532 18.3654 13.1907 19.0029 12.7876 19.8466C11.9063 21.7122 12.0845 23.8685 13.247 25.4904C14.372 27.056 16.2282 27.8529 18.2157 27.6185C18.5345 27.581 18.8438 27.506 19.1345 27.431C19.9407 27.2341 20.1938 27.2154 20.447 27.4497C20.5688 27.5716 20.5876 27.5904 20.5782 27.9841C20.5782 28.2372 20.5782 28.556 20.6626 28.9122C20.8032 29.4841 21.1688 29.8872 21.4595 30.206C21.6001 30.3654 21.7501 30.5247 21.797 30.6372C22.0876 31.3404 21.9657 31.7247 21.6845 32.5779C21.6563 32.6529 21.6376 32.7279 21.6095 32.8029C21.1876 34.1154 21.7782 35.4185 22.2938 36.5622C22.4626 36.9372 22.622 37.2841 22.7251 37.5935C23.5688 40.0966 24.197 40.6685 24.7032 40.8935C24.9657 41.0154 25.247 41.0716 25.5188 41.0716C26.8688 41.0716 28.2845 39.8154 28.9313 39.0185C29.3345 38.5216 29.4376 38.0154 29.5126 37.6497C29.5501 37.4716 29.5782 37.3216 29.6345 37.2279C29.7188 37.0872 29.8126 36.9747 29.9438 36.8341C30.197 36.5529 30.5063 36.1966 30.7126 35.5591C30.8626 35.0716 30.9751 34.9591 31.3501 34.5654C31.4157 34.4997 31.4813 34.4247 31.5563 34.3404C32.8032 32.981 32.4845 31.9404 32.147 30.8435C31.8563 29.9154 32.3626 29.3247 33.572 28.1997C34.097 27.7122 34.6407 27.206 35.0626 26.5966C35.2501 26.3341 35.8032 25.5185 35.4563 24.7216C35.1188 23.9341 34.2563 23.8029 33.5626 23.6997C33.2907 23.6622 32.8782 23.5966 32.747 23.5122C32.1657 23.1372 31.8095 22.3404 31.472 21.5716C31.4063 21.4216 31.3407 21.2716 31.2657 21.1216C31.1438 20.8591 31.022 20.5497 30.8907 20.2122C30.5532 19.331 30.1595 18.3279 29.5032 17.6341C28.9126 17.006 27.797 16.706 26.8126 16.4435C26.4845 16.3497 26.1657 16.2654 25.9595 16.1904C25.7907 16.1247 25.6032 16.1154 25.4251 16.1529C24.947 16.2654 24.647 16.3872 24.422 16.5654C24.3657 16.6122 24.1876 16.7622 24.0845 17.0154C23.7376 16.8466 23.2688 16.5372 22.9782 16.3404C22.9688 16.3404 22.9688 16.331 22.9595 16.331C23.0532 15.9372 22.9688 15.6279 22.8751 15.431C22.3501 14.3247 20.6157 14.4091 20.2688 14.4372C20.072 14.456 19.8282 14.4654 19.5657 14.4747C19.1532 14.4935 18.7032 14.5029 18.2532 14.5591L18.272 14.4935C18.6095 13.5466 19.5188 12.9091 20.522 12.9091H21.0563C21.572 12.9091 21.9938 12.4872 21.9938 11.9716C21.9938 11.456 21.572 11.0341 21.0563 11.0341H20.5313C19.0407 11.0341 17.672 11.8216 16.9032 13.0591L15.5063 11.0997L16.8845 7.76223L22.9501 5.6341C23.1188 5.57785 23.2595 5.47473 23.372 5.3341L26.072 1.94973C32.9626 2.60598 39.4501 6.46848 43.1626 12.9091C44.1563 14.6247 44.8876 16.4247 45.3751 18.2716L44.9813 18.6279C44.4657 19.0872 44.1563 19.7529 44.147 20.4466C44.147 20.456 44.147 20.4654 44.147 20.4654L43.5001 18.6841C43.4063 18.4216 43.2657 18.1779 43.0782 17.9622L41.9251 16.6122C41.4751 16.0872 40.8282 15.7872 40.1345 15.7872H38.7188C38.2126 15.7872 37.7626 16.0591 37.5188 16.4997C37.2845 16.9404 37.3126 17.4747 37.5845 17.8966L37.7251 18.1122C36.8157 18.8997 35.7563 19.5279 34.6313 19.9497L32.6907 16.2372V15.4122C32.6907 15.1591 32.5876 14.9154 32.4001 14.7372L30.6563 13.106C30.5626 13.0122 30.4407 12.9466 30.3188 12.8997L28.7438 12.3466C28.2563 12.1779 27.722 12.431 27.5532 12.9185C27.3845 13.406 27.6376 13.9404 28.1251 14.1091L29.5032 14.5966L30.8157 15.8435V16.4997C30.8157 16.6497 30.8532 16.7997 30.9188 16.931L33.347 21.581C33.5626 22.0029 34.0595 22.1904 34.5001 22.031L35.2032 21.7685C36.8438 21.1591 38.3626 20.1935 39.6001 18.956C39.9188 18.6372 39.9657 18.1497 39.7126 17.7747L39.6657 17.6997H40.1157C40.2563 17.6997 40.3876 17.7654 40.4813 17.8685L41.6345 19.2185C41.672 19.2654 41.7001 19.3122 41.7188 19.3685L42.9938 22.8747C43.1063 23.1747 43.3595 23.3997 43.6688 23.4654C43.7345 23.4841 43.8001 23.4841 43.8751 23.4841C44.1188 23.4841 44.3626 23.3904 44.5407 23.2122L45.1501 22.6029C45.5345 22.2185 45.797 21.731 45.9282 21.1966C46.8657 28.7154 43.922 36.4966 37.6876 41.381C37.2845 41.6997 37.2095 42.2904 37.5282 42.6935C37.847 43.0966 38.4376 43.1716 38.8407 42.8529C43.3407 39.3185 46.4345 34.2747 47.5407 28.631C48.6657 22.9497 47.6907 17.0435 44.7845 12.0091ZM4.43447 26.5029L8.29697 29.4466C8.40947 29.531 8.54072 29.5966 8.68134 29.6247L11.0157 30.0841C11.3157 30.1404 11.5595 30.3185 11.7188 30.581C11.8688 30.8435 11.9063 31.1435 11.8126 31.4341C11.6157 32.0247 11.6157 32.6529 11.8126 33.2435L12.1126 34.1529C12.2907 34.6966 11.9907 35.2872 11.447 35.4654L10.5188 35.7654C10.1907 35.8685 9.95634 36.1404 9.89072 36.4779L9.14072 40.3872C7.49072 38.8779 6.04697 37.0966 4.86572 35.0622C3.43134 32.5779 2.54072 29.9341 2.14697 27.2529L4.43447 26.5029ZM9.90009 11.5591L8.79384 12.7404C8.74697 12.7966 8.70009 12.8529 8.66259 12.9185L6.15947 17.2872L3.93759 18.881C3.52509 19.181 3.42197 19.7529 3.71259 20.1747L4.54697 21.3935C4.06884 21.4685 3.63759 21.5247 3.34697 21.5529C3.29072 21.4966 3.23447 21.4497 3.17822 21.3935C2.95322 21.1872 2.64384 20.906 2.18447 20.5029C2.94384 15.7872 5.21259 11.3529 8.78447 7.9591C9.46884 8.17473 10.0313 8.68098 10.3032 9.3466C10.6032 10.0966 10.4438 10.9591 9.90009 11.5591ZM17.5407 16.6779C17.9626 16.4435 18.9282 16.406 19.6407 16.3872C19.922 16.3779 20.1938 16.3685 20.4282 16.3497C20.5501 16.3404 20.6907 16.3404 20.8313 16.3497C20.7751 16.4997 20.7563 16.6685 20.7751 16.8372C20.822 17.1279 21.0001 17.381 21.2626 17.5216C21.4407 17.6154 21.6845 17.7747 21.947 17.9529C22.6782 18.4404 23.5126 18.9935 24.2907 19.0404C25.0032 19.0872 25.397 18.6841 25.5657 18.506C25.5751 18.4966 25.5938 18.4779 25.6032 18.4685C25.697 18.3935 25.7907 18.2904 25.8563 18.1591C26.0063 18.206 26.1657 18.2435 26.3251 18.2904C26.8782 18.4404 27.9095 18.7216 28.1438 18.9654C28.547 19.3966 28.8657 20.2122 29.147 20.9341C29.2876 21.2997 29.4188 21.6466 29.5688 21.9654C29.6345 22.106 29.7001 22.2466 29.7563 22.3872C30.1876 23.3529 30.6751 24.4497 31.7157 25.1247C32.1845 25.4341 32.7657 25.5185 33.272 25.6029C33.3376 25.6122 33.4032 25.6216 33.4782 25.631C33.1782 26.0529 32.747 26.456 32.2876 26.8779C31.1251 27.956 29.6813 29.306 30.347 31.4529C30.6563 32.4654 30.6751 32.5779 30.1688 33.1216C30.1032 33.1966 30.0376 33.2622 29.972 33.3279C29.5407 33.7872 29.1938 34.1529 28.9126 35.0435C28.8282 35.306 28.7251 35.4185 28.5282 35.6435C28.3782 35.8216 28.1813 36.0372 28.0032 36.3372C27.7876 36.7029 27.722 37.0497 27.6657 37.331C27.6095 37.6122 27.5813 37.7435 27.4688 37.8841C27.2251 38.1841 26.7563 38.6341 26.2876 38.9341C25.847 39.2154 25.5938 39.2529 25.5001 39.2435C25.397 39.1404 25.0407 38.6622 24.4876 37.0404C24.3563 36.6372 24.1688 36.2247 23.9813 35.831C23.5782 34.9497 23.1657 34.0404 23.372 33.4216C23.4001 33.3466 23.4188 33.281 23.4376 33.206C23.7563 32.231 24.0657 31.3029 23.5032 29.9622C23.3345 29.5497 23.0626 29.2497 22.8188 28.9872C22.6595 28.8185 22.4907 28.6216 22.4626 28.5091C22.4251 28.3779 22.4345 28.2185 22.4345 28.031C22.4345 27.5435 22.4438 26.8029 21.7032 26.1091C20.6626 25.1341 19.4532 25.4341 18.6563 25.631C18.4126 25.6872 18.1782 25.7529 17.972 25.7716C16.6595 25.9216 15.4782 25.4247 14.747 24.4122C13.9782 23.3435 13.8657 21.9091 14.4563 20.6622C14.7376 20.0622 15.1688 19.5747 15.6657 19.0122C15.7782 18.8904 15.8813 18.7685 15.9938 18.6372C16.172 18.431 16.3782 18.1404 16.5938 17.8404C16.8657 17.4747 17.3345 16.8091 17.5407 16.6779Z" fill="#405764"/>
<path d="M38.4374 32.2782L37.9874 30.5813C37.8843 30.2063 37.5749 29.9345 37.1905 29.8876C36.8062 29.8407 36.4405 30.0376 36.253 30.3751C36.1499 30.5626 36.0562 30.7688 35.9718 30.9563C35.8218 31.2845 35.6624 31.622 35.503 31.8095C35.4093 31.9126 35.1749 32.0251 34.9499 32.1376C34.4062 32.4001 33.6749 32.7563 33.3843 33.6563C33.2062 34.2188 33.2718 34.6595 33.3187 34.9782C33.3562 35.2595 33.3655 35.3532 33.2905 35.5313L33.2812 35.5501C32.9812 36.2532 32.428 37.5563 33.2062 38.6626C33.7593 39.4501 34.3499 39.6563 34.7999 39.6563C34.8843 39.6563 34.9687 39.647 35.053 39.6376C36.0093 39.4782 36.7312 38.4845 37.3124 36.5063L38.4187 32.7938C38.4843 32.6157 38.4843 32.447 38.4374 32.2782ZM35.5312 35.9626C35.2312 36.9751 34.9687 37.4438 34.8093 37.6501C34.7905 37.6313 34.7718 37.6032 34.753 37.5751C34.5749 37.322 34.8374 36.6938 35.0155 36.272L35.0249 36.2532C35.3062 35.5782 35.2312 35.072 35.1749 34.6876C35.1374 34.4438 35.128 34.3407 35.1749 34.2001C35.2124 34.0876 35.428 33.9657 35.7655 33.8063C35.9155 33.7313 36.0749 33.6563 36.2343 33.5626L35.5312 35.9626Z" fill="#405764"/>
<path d="M25.3121 11.1468L25.2465 11.128C24.759 10.9593 24.2246 11.2124 24.0559 11.6999C23.8871 12.1874 24.1403 12.7218 24.6278 12.8905L24.6934 12.9093C24.7965 12.9468 24.8996 12.9655 25.0028 12.9655C25.3871 12.9655 25.7528 12.7218 25.884 12.3374C26.0621 11.8499 25.7996 11.3155 25.3121 11.1468Z" fill="#405764"/>
</g>
<defs>
<clipPath id="clip0">
<rect width="48" height="48" fill="white"/>
</clipPath>
</defs>
</svg>
